<?xml version="1.0" encoding="UTF-8" standalone="no"?>
<svg
   xmlns:dc="http://purl.org/dc/elements/1.1/"
   xmlns:cc="http://creativecommons.org/ns#"
   xmlns:rdf="http://www.w3.org/1999/02/22-rdf-syntax-ns#"
   xmlns:svg="http://www.w3.org/2000/svg"
   xmlns="http://www.w3.org/2000/svg"
   xmlns:sodipodi="http://sodipodi.sourceforge.net/DTD/sodipodi-0.dtd"
   xmlns:inkscape="http://www.inkscape.org/namespaces/inkscape"
   viewBox="0 0 1436.092 474.42078"
   version="1.1"
   id="svg999"
   sodipodi:docname="CRoG-logotype-paths.svg"
   width="1436.092"
   height="474.42078"
   inkscape:export-filename="/Users/scott/dev/chemical-roles/art/CRoG-logotype-1024.png"
   inkscape:export-xdpi="207.20847"
   inkscape:export-ydpi="207.20847"
   inkscape:version="1.0 (4035a4f, 2020-05-01)">
  <title
     id="title41">CRoG Logotype</title>
  <metadata
     id="metadata1005">
    <rdf:RDF>
      <cc:Work
         rdf:about="">
        <dc:format>image/svg+xml</dc:format>
        <dc:type
           rdf:resource="http://purl.org/dc/dcmitype/StillImage" />
        <dc:title>CRoG Logotype</dc:title>
        <dc:date>2020-07-16</dc:date>
        <dc:creator>
          <cc:Agent>
            <dc:title>Scott Colby</dc:title>
          </cc:Agent>
        </dc:creator>
        <cc:license
           rdf:resource="http://creativecommons.org/licenses/by/3.0/" />
      </cc:Work>
    </rdf:RDF>
  </metadata>
  <defs
     id="defs1003">
    <inkscape:path-effect
       effect="powermask"
       id="path-effect186"
       is_visible="true"
       lpeversion="1"
       uri="#mask-powermask-path-effect186"
       invert="false"
       hide_mask="false"
       background="true"
       background_color="#ffffffff" />
    <inkscape:path-effect
       effect="powermask"
       id="path-effect161"
       is_visible="true"
       lpeversion="1"
       uri="#mask-powermask-path-effect161"
       invert="false"
       hide_mask="false"
       background="true"
       background_color="#ffffffff" />
    <mask
       maskUnits="userSpaceOnUse"
       id="mask-powermask-path-effect161">
      <path
         d="M 64.8125,105.71289 H 452.06055 V 335.0625 H 64.8125 Z"
         style="fill:#ffffff;fill-opacity:1"
         id="mask-powermask-path-effect161_box" />
      <path
         inkscape:export-ydpi="96"
         inkscape:export-xdpi="96"
         id="path159"
         fill-opacity="1"
         fill="#000000"
         d="m 322.64697,16.000003 c -25.7,0 -46.5,27.02 -46.5,60.359999 0,20.050001 7.7,38.849998 20.6,50.049998 5.6,81.2 -4.7,152.3 -53.6,160.1 -60.2,6.2 -73.2,-68.2 -84.6,-139 8.9,-15.7 9.2,-37.5 0.6,-57.299997 -13.4,-30.79 -43.6,-47.33 -67.560015,-36.92 -23.92,10.4 -32.47,43.72 -19.11,74.519997 9.44,21.7 27.770015,37.1 47.070015,39.6 33.9,57.6 71.8,152.4 51,180.2 -11.5,15.2 -32.7,10.4 -55.6,-4 3.7,-16.3 -4.5,-34.6 -20.810015,-46.7 -22.74,-16.9 -53.8,-16.5 -69.39,0.8 -15.599999,17.3 -9.77,45 13,61.9 17.78,13.1 41.33,16.1 58.44,7.4 67.860015,32.9 121.860015,99.5 175.560015,90.6 76.2,-12.6 76.5,-119.3 148.29999,-149.9 13.7,9.1 33.5,8.3 49.7,-2.1 21.2,-13.7 29.1,-39.2 17.7,-56.9 -11.4,-17.8 -37.9,-21.1 -59.2,-7.4 -15.9,10.3 -24.89999,27.8 -22.49999,43.9 -29.9,22.4 -68.5,39.7 -88.7,27.3 -16.2,-9.9 1.8,-122.3 19,-178.4 19.6,-7.7 33.1,-31.1 33.1,-57.749998 0,-33.339999 -20.8,-60.369999 -46.5,-60.359999 z"
         style="" />
    </mask>
    <mask
       maskUnits="userSpaceOnUse"
       id="mask-powermask-path-effect186">
      <path
         d="M 15,15 H 493.66352 V 459.42078 H 15 Z"
         style="fill:#ffffff;fill-opacity:1"
         id="mask-powermask-path-effect186_box" />
      <path
         id="path183"
         style="color:#000000;font-style:normal;font-variant:normal;font-weight:normal;font-stretch:normal;font-size:medium;line-height:normal;font-family:sans-serif;font-variant-ligatures:normal;font-variant-position:normal;font-variant-caps:normal;font-variant-numeric:normal;font-variant-alternates:normal;font-variant-east-asian:normal;font-feature-settings:normal;font-variation-settings:normal;text-indent:0;text-align:start;text-decoration:none;text-decoration-line:none;text-decoration-style:solid;text-decoration-color:#000000;letter-spacing:normal;word-spacing:normal;text-transform:none;writing-mode:lr-tb;direction:ltr;text-orientation:mixed;dominant-baseline:auto;baseline-shift:baseline;text-anchor:start;white-space:normal;shape-padding:0;shape-margin:0;inline-size:0;clip-rule:nonzero;display:inline;overflow:visible;visibility:visible;opacity:1;isolation:auto;mix-blend-mode:normal;color-interpolation:sRGB;color-interpolation-filters:linearRGB;solid-color:#000000;solid-opacity:1;vector-effect:none;fill:#000000;fill-opacity:1;fill-rule:nonzero;stroke:none;stroke-width:8;stroke-linecap:butt;stroke-linejoin:miter;stroke-miterlimit:4;stroke-dasharray:none;stroke-dashoffset:0;stroke-opacity:1;color-rendering:auto;image-rendering:auto;shape-rendering:auto;text-rendering:auto;enable-background:accumulate;stop-color:#000000;stop-opacity:1"
         d="m 317.3457,100.56641 c -2.53968,33.06333 -7.02392,65.94976 -12.9707,98.61328 -55.03071,-27.15615 -110.06114,-54.31255 -165.0918,-81.46875 -0.7848,2.60875 -2.0561,4.98857 -3.67968,7.10547 55.72379,27.49806 111.4482,54.99603 167.17187,82.49414 -5.58882,29.43933 -12.35321,58.67906 -20.02148,87.69922 -24.84381,3.56528 -49.68745,7.13198 -74.53125,10.69726 -34.08928,-53.94702 -59.17864,-113.52375 -81.02149,-173.83398 -2.37405,1.27403 -4.93168,2.21664 -7.56445,2.76172 21.49796,59.41732 46.13209,118.49405 79.69726,172.34765 -36.72065,5.26971 -73.44139,10.53917 -110.162105,15.8086 0.29014,1.53078 0.43219,3.10149 0.398437,4.69531 0.06235,1.14338 0.02028,2.25385 -0.08594,3.34179 38.186158,-5.47999 76.372478,-10.95943 114.558598,-16.43945 7.80809,12.11067 16.05661,23.9606 24.87891,35.45313 2.09578,-1.6781 4.33623,-3.15461 6.68554,-4.43164 -8.03756,-10.45884 -15.50162,-21.29155 -22.69922,-32.29493 22.54749,-3.23574 45.0951,-6.47128 67.64258,-9.70703 -3.34924,12.38438 -6.8493,24.72663 -10.47266,37.02539 2.61167,0.53228 5.17323,1.27338 7.65821,2.22071 3.96486,-13.43498 7.77772,-26.92781 11.41015,-40.47852 45.57227,-6.53998 91.14455,-13.08106 136.7168,-19.62109 -0.94748,-2.52507 -1.42721,-5.1865 -1.46289,-7.8711 -44.35026,6.36449 -88.70056,12.72914 -133.05078,19.09375 7.17118,-27.38917 13.52448,-54.99435 18.85937,-82.79882 38.34686,18.92311 76.69412,37.84632 115.04102,56.76953 0.66459,-2.59585 1.70492,-5.10052 3.07617,-7.40235 -38.83858,-19.16594 -77.67695,-38.33222 -116.51562,-57.49804 6.2045,-33.68669 10.89659,-67.63701 13.52148,-101.81446 -2.67712,0.26908 -5.37879,0.13601 -7.98633,-0.46679 z m 108.86133,182.89062 c -43.16546,24.01563 -85.82073,49.01785 -127.54101,75.52735 1.56076,2.11885 2.94814,4.36252 4.13867,6.70703 41.77848,-26.54399 84.52967,-51.59429 127.82031,-75.66797 -1.93805,-1.97921 -3.40651,-4.19795 -4.41797,-6.56641 z M 86.3125,340.14062 c -1.438666,2.31217 -3.289002,4.35209 -5.416016,6.07618 38.337536,26.44278 84.197356,40.27502 130.441406,45.16601 -0.25687,-2.71208 -0.2935,-5.4376 -0.0977,-8.14843 -44.4981,-4.84205 -88.36322,-18.15053 -124.92769,-43.09376 z M 344.62292,76.283257 c 0,11.561286 -9.37227,20.93356 -20.93356,20.933561 -11.56129,-10e-7 -20.93356,-9.372275 -20.93356,-20.933561 0,-11.561286 9.37227,-20.933561 20.93356,-20.933562 11.56129,1e-6 20.93356,9.372276 20.93356,20.933562 M 136.15957,110.3003 c 0,11.56129 -9.37227,20.93356 -20.93356,20.93356 -11.56128,0 -20.933557,-9.37228 -20.933558,-20.93356 0,-11.561285 9.372268,-20.933559 20.933558,-20.933561 11.56129,10e-7 20.93356,9.372275 20.93356,20.933561 M 85.57012,327.48599 c -10e-7,11.56129 -9.372275,20.93356 -20.933561,20.93356 -11.561286,0 -20.933561,-9.37227 -20.933562,-20.93356 10e-7,-11.56129 9.372276,-20.93356 20.933562,-20.93356 11.561286,0 20.93356,9.37227 20.933561,20.93356 M 470.2243,273.40762 c 0,11.56129 -9.37227,20.93356 -20.93356,20.93356 -11.56129,0 -20.93356,-9.37227 -20.93356,-20.93356 0,-11.56129 9.37227,-20.93356 20.93356,-20.93356 11.56129,0 20.93356,9.37227 20.93356,20.93356 M 304.06417,387.66998 c 0,24.56774 -19.91608,44.48382 -44.48382,44.48382 -24.56774,0 -44.48382,-19.91608 -44.48382,-44.48382 0,-24.56774 19.91608,-44.48382 44.48382,-44.48382 24.56774,0 44.48382,19.91608 44.48382,44.48382" />
    </mask>
    <filter
       id="mask-powermask-path-effect186_inverse"
       inkscape:label="filtermask-powermask-path-effect186"
       style="color-interpolation-filters:sRGB"
       height="100"
       width="100"
       x="-50"
       y="-50">
      <feColorMatrix
         id="mask-powermask-path-effect186_primitive1"
         values="1"
         type="saturate"
         result="fbSourceGraphic" />
      <feColorMatrix
         id="mask-powermask-path-effect186_primitive2"
         values="-1 0 0 0 1 0 -1 0 0 1 0 0 -1 0 1 0 0 0 1 0 "
         in="fbSourceGraphic" />
    </filter>
    <filter
       id="mask-powermask-path-effect161_inverse"
       inkscape:label="filtermask-powermask-path-effect161"
       style="color-interpolation-filters:sRGB"
       height="100"
       width="100"
       x="-50"
       y="-50">
      <feColorMatrix
         id="mask-powermask-path-effect161_primitive1"
         values="1"
         type="saturate"
         result="fbSourceGraphic" />
      <feColorMatrix
         id="mask-powermask-path-effect161_primitive2"
         values="-1 0 0 0 1 0 -1 0 0 1 0 0 -1 0 1 0 0 0 1 0 "
         in="fbSourceGraphic" />
    </filter>
  </defs>
  <sodipodi:namedview
     inkscape:document-rotation="0"
     pagecolor="#ffffff"
     bordercolor="#666666"
     borderopacity="1"
     objecttolerance="10"
     gridtolerance="10"
     guidetolerance="10"
     inkscape:pageopacity="0"
     inkscape:pageshadow="2"
     inkscape:window-width="1440"
     inkscape:window-height="773"
     id="namedview1001"
     showgrid="false"
     lock-margins="true"
     fit-margin-top="16"
     fit-margin-left="16"
     fit-margin-right="16"
     fit-margin-bottom="16"
     inkscape:zoom="0.26354143"
     inkscape:cx="-531.31363"
     inkscape:cy="542.94179"
     inkscape:window-x="0"
     inkscape:window-y="23"
     inkscape:window-maximized="0"
     inkscape:current-layer="svg999" />
  <path
     d="m 322.64697,16.000003 c -25.7,0 -46.5,27.02 -46.5,60.359999 0,20.050001 7.7,38.849998 20.6,50.049998 5.6,81.2 -4.7,152.3 -53.6,160.1 -60.2,6.2 -73.2,-68.2 -84.6,-139 8.9,-15.7 9.2,-37.5 0.6,-57.299997 -13.4,-30.79 -43.6,-47.33 -67.560015,-36.92 -23.92,10.4 -32.47,43.72 -19.11,74.519997 9.44,21.7 27.770015,37.1 47.070015,39.6 33.9,57.6 71.8,152.4 51,180.2 -11.5,15.2 -32.7,10.4 -55.6,-4 3.7,-16.3 -4.5,-34.6 -20.810015,-46.7 -22.74,-16.9 -53.8,-16.5 -69.39,0.8 -15.599999,17.3 -9.77,45 13,61.9 17.78,13.1 41.33,16.1 58.44,7.4 67.860015,32.9 121.860015,99.5 175.560015,90.6 76.2,-12.6 76.5,-119.3 148.29999,-149.9 13.7,9.1 33.5,8.3 49.7,-2.1 21.2,-13.7 29.1,-39.2 17.7,-56.9 -11.4,-17.8 -37.9,-21.1 -59.2,-7.4 -15.9,10.3 -24.89999,27.8 -22.49999,43.9 -29.9,22.4 -68.5,39.7 -88.7,27.3 -16.2,-9.9 1.8,-122.3 19,-178.4 19.6,-7.7 33.1,-31.1 33.1,-57.749998 0,-33.339999 -20.8,-60.369999 -46.5,-60.359999 z"
     fill="#000000"
     fill-opacity="1"
     id="path122"
     inkscape:export-xdpi="96"
     inkscape:export-ydpi="96"
     style="fill:#000000"
     mask="url(#mask-powermask-path-effect186)"
     inkscape:path-effect="#path-effect186"
     inkscape:original-d="m 322.64697,16.000003 c -25.7,0 -46.5,27.02 -46.5,60.359999 0,20.050001 7.7,38.849998 20.6,50.049998 5.6,81.2 -4.7,152.3 -53.6,160.1 -60.2,6.2 -73.2,-68.2 -84.6,-139 8.9,-15.7 9.2,-37.5 0.6,-57.299997 -13.4,-30.79 -43.6,-47.33 -67.560015,-36.92 -23.92,10.4 -32.47,43.72 -19.11,74.519997 9.44,21.7 27.770015,37.1 47.070015,39.6 33.9,57.6 71.8,152.4 51,180.2 -11.5,15.2 -32.7,10.4 -55.6,-4 3.7,-16.3 -4.5,-34.6 -20.810015,-46.7 -22.74,-16.9 -53.8,-16.5 -69.39,0.8 -15.599999,17.3 -9.77,45 13,61.9 17.78,13.1 41.33,16.1 58.44,7.4 67.860015,32.9 121.860015,99.5 175.560015,90.6 76.2,-12.6 76.5,-119.3 148.29999,-149.9 13.7,9.1 33.5,8.3 49.7,-2.1 21.2,-13.7 29.1,-39.2 17.7,-56.9 -11.4,-17.8 -37.9,-21.1 -59.2,-7.4 -15.9,10.3 -24.89999,27.8 -22.49999,43.9 -29.9,22.4 -68.5,39.7 -88.7,27.3 -16.2,-9.9 1.8,-122.3 19,-178.4 19.6,-7.7 33.1,-31.1 33.1,-57.749998 0,-33.339999 -20.8,-60.369999 -46.5,-60.359999 z" />
  <path
     id="path146"
     style="color:#000000;font-style:normal;font-variant:normal;font-weight:normal;font-stretch:normal;font-size:medium;line-height:normal;font-family:sans-serif;font-variant-ligatures:normal;font-variant-position:normal;font-variant-caps:normal;font-variant-numeric:normal;font-variant-alternates:normal;font-variant-east-asian:normal;font-feature-settings:normal;font-variation-settings:normal;text-indent:0;text-align:start;text-decoration:none;text-decoration-line:none;text-decoration-style:solid;text-decoration-color:#000000;letter-spacing:normal;word-spacing:normal;text-transform:none;writing-mode:lr-tb;direction:ltr;text-orientation:mixed;dominant-baseline:auto;baseline-shift:baseline;text-anchor:start;white-space:normal;shape-padding:0;shape-margin:0;inline-size:0;clip-rule:nonzero;display:inline;overflow:visible;visibility:visible;opacity:1;isolation:auto;mix-blend-mode:normal;color-interpolation:sRGB;color-interpolation-filters:linearRGB;solid-color:#000000;solid-opacity:1;vector-effect:none;fill:#000000;fill-opacity:1;fill-rule:nonzero;stroke:none;stroke-width:8;stroke-linecap:butt;stroke-linejoin:miter;stroke-miterlimit:4;stroke-dasharray:none;stroke-dashoffset:0;stroke-opacity:1;color-rendering:auto;image-rendering:auto;shape-rendering:auto;text-rendering:auto;enable-background:accumulate;stop-color:#000000;stop-opacity:1"
     d="m 116.99609,106.71289 -3.54101,7.17383 c 111.35491,54.9506 222.7115,109.90096 334.0664,164.85156 l 3.53907,-7.17383 C 339.70565,216.61385 228.351,161.66349 116.99609,106.71289 Z M 448.72266,271.19336 C 321.0861,289.51022 193.44907,307.82572 65.8125,326.14258 l 1.136719,7.91992 C 194.58579,315.74564 322.22282,297.42819 449.85938,279.11133 Z"
     mask="url(#mask-powermask-path-effect161)"
     inkscape:path-effect="#path-effect161"
     inkscape:original-d="m 116.99609,106.71289 -3.54101,7.17383 c 111.35491,54.9506 222.7115,109.90096 334.0664,164.85156 l 3.53907,-7.17383 C 339.70565,216.61385 228.351,161.66349 116.99609,106.71289 Z M 448.72266,271.19336 C 321.0861,289.51022 193.44907,307.82572 65.8125,326.14258 l 1.136719,7.91992 C 194.58579,315.74564 322.22282,297.42819 449.85938,279.11133 Z" />
  <g
     style="font-size:533.333px;line-height:1.25;font-family:Trattatello;-inkscape-font-specification:Trattatello;letter-spacing:-10px"
     id="text1595"
     aria-label="CRoG">
    <path
       id="path116"
       style="font-size:533.333px"
       d="m 686.46338,135.22097 q 7.99999,0 11.73332,3.73333 4.26667,3.2 6.4,8.53333 2.13333,5.33333 2.13333,11.19999 0.53334,5.33333 0.53334,9.06667 v 10.13332 q -3.2,12.26666 -11.2,22.39999 -7.46666,10.13333 -19.73332,10.13333 -7.99999,0 -17.06666,-4.8 -9.06666,-5.33333 -20.26665,-5.33333 -11.73333,0 -22.93332,8.53333 -11.19999,7.99999 -20.26665,19.19999 -9.06666,11.19999 -14.93333,22.93331 -5.33333,11.2 -5.33333,17.59999 v 14.93333 20.26665 q 0,6.4 2.13333,21.86666 2.13334,15.46665 6.93333,31.99998 4.8,15.99999 12.26666,28.79998 8,12.26666 19.73332,12.26666 l 10.66666,-4.26667 q 12.26666,0 22.93332,-2.66666 10.66666,-3.2 19.73332,-12.26666 11.73333,-13.86666 22.39999,-21.86665 3.2,-2.66667 7.46666,-3.73334 4.26667,-1.06666 7.46667,-1.06666 1.06666,1.06666 2.66666,3.2 3.2,4.26666 3.2,7.46666 0,11.73333 -8.53333,27.19998 -8.53333,14.93333 -20.79999,28.79998 -11.73332,13.33333 -24.53332,22.93332 -12.26665,9.6 -20.26665,9.6 h -4.26666 q -7.46667,1.6 -13.86666,3.2 -5.86667,1.06666 -11.2,2.13333 -5.33333,1.06666 -7.46666,1.06666 -4.26666,0 -12.26666,-3.73333 -7.46666,-3.73333 -15.99999,-9.06666 -8.53332,-4.79999 -15.46665,-10.13332 -6.93333,-5.86667 -8.53333,-10.13333 -2.13333,-1.6 -5.86667,-10.13333 -3.19999,-9.06666 -6.93332,-19.73332 -3.2,-11.19999 -5.86667,-21.86665 -2.13333,-10.66666 -2.13333,-15.99999 v -16.53333 q -1.6,-3.2 -3.2,-5.86666 -2.66666,-5.33333 -2.66666,-9.06666 1.06666,-6.4 2.66666,-12.26666 1.06667,-4.8 2.13333,-10.13333 1.06667,-5.33333 1.06667,-8.53333 v -11.73332 q 0,-1.6 -1.06667,-3.73333 -1.06666,-2.66667 -2.13333,-5.33333 -1.6,-2.66667 -2.66666,-5.86667 l 5.86666,-16.53332 v -10.13333 q 4.26666,-9.06666 8,-16.53332 3.19999,-6.4 6.39999,-12.26666 3.73333,-5.86666 6.4,-8.53333 1.6,-10.13332 7.99999,-18.13332 6.4,-7.99999 14.93333,-14.93332 9.06666,-6.93333 19.19999,-12.8 10.13332,-5.86666 20.26665,-11.73332 5.86666,-1.06667 11.73333,-2.66667 4.26666,-1.06666 8.53332,-2.13333 4.8,-1.06667 6.4,-1.06667 h 10.66666 20.26665 z" />
    <path
       id="path118"
       style="font-size:533.333px"
       d="m 921.08822,135.22097 q 10.66666,0 19.73332,8.53333 9.6,7.99999 17.06666,14.93332 4.26666,12.8 13.33333,19.19999 3.19999,3.73333 6.39999,8 3.2,4.26666 4.26667,10.13332 2.13333,0 4.26666,4.8 2.13333,4.26667 3.73333,10.66666 1.6,5.86666 2.66667,11.19999 1.06666,5.33334 1.06666,6.93333 0,7.46667 -2.66666,16.53333 -2.66667,9.06666 -6.93333,18.13332 -3.73333,9.06666 -8.53333,17.59999 -4.26666,7.99999 -7.46666,13.33332 -2.13333,3.73334 -5.86667,5.86667 -3.19999,2.13333 -6.39999,4.26666 -3.2,1.6 -5.86666,4.8 -2.13334,3.2 -2.13334,8.53333 0,5.86666 3.2,15.46665 3.2,9.6 8,19.19999 4.79999,9.6 9.59999,17.06666 5.33333,7.46666 8.53333,9.06666 6.39999,4.26666 11.19999,10.66666 5.33333,6.4 10.66666,12.79999 5.86666,6.4 12.26666,11.73333 6.4,4.79999 14.9333,6.39999 3.2,1.06667 10.1334,4.26667 6.9333,2.66666 10.6666,6.39999 3.2,3.2 3.2,4.8 0.5333,1.06667 -0.5333,5.33333 -1.6,5.86666 -8,8.53333 -5.8667,2.66666 -13.3333,3.2 -6.9334,1.06666 -12.8,0.53333 -5.8667,0 -6.9334,-0.53333 -3.7333,-3.2 -10.13329,-3.2 -5.86666,0 -9.6,-1.06667 -14.39999,-8.53332 -20.26665,-13.86665 -5.86666,-5.33333 -13.86666,-10.13333 -3.2,-1.6 -7.99999,-5.33333 -4.8,-4.26667 -10.66666,-9.6 -5.33333,-5.33333 -11.2,-11.19999 -5.33333,-5.86666 -10.13332,-10.66666 -6.4,-7.99999 -11.2,-15.46666 -4.26666,-7.46666 -7.99999,-13.86666 -3.2,-6.93332 -6.4,-12.26665 -3.2,-5.86667 -6.93333,-9.06667 -7.46666,-4.26666 -11.19999,-7.99999 -3.2,-3.73333 -10.66666,-3.73333 -6.4,0 -10.13333,4.26666 -3.2,3.73333 -5.33333,9.06666 -1.6,5.33333 -2.13333,11.2 -0.53333,5.86666 -0.53333,9.59999 l 5.86666,25.06665 v 10.66666 q 0,12.79999 8,19.19999 8.53332,6.4 18.13332,10.66666 9.59999,4.26667 17.59999,8.53333 8.53333,3.73333 8.53333,11.73333 0,3.73333 -3.73334,6.39999 -3.73333,2.66667 -6.93332,2.66667 h -19.19999 l -29.86665,-4.26667 h -11.73333 -25.06665 -9.06666 -20.79999 q -1.6,0 -10.66666,-1.06666 -8.53333,-0.53334 -18.66665,-2.66667 -9.6,-1.6 -17.59999,-5.33333 -8,-3.2 -8,-9.06666 0,-1.6 1.6,-3.2 1.6,-1.6 3.73333,-3.2 2.13334,-2.13333 5.33333,-3.73333 1.6,0 4.8,0.53334 3.2,0.53333 6.4,1.06666 3.73333,0.53333 7.99999,1.06667 h 10.66666 q 10.66666,0 17.59999,-5.86667 7.46666,-6.39999 7.46666,-13.33332 v -55.99997 -86.39994 l 4.26667,-38.39998 q -1.6,-5.33333 -2.13334,-12.79999 -0.53333,-7.46666 -2.13333,-13.86666 -1.06666,-6.93333 -4.79999,-12.26666 -3.2,-5.33333 -10.13333,-6.93333 h -20.79999 q -5.86666,0 -11.73332,-1.06666 -5.86667,-1.06667 -11.2,-3.73334 -4.8,-2.66666 -7.99999,-7.46666 -3.2,-4.79999 -3.2,-12.79999 0,-1.6 2.13333,-3.2 2.66667,-2.13333 5.33333,-3.73333 3.2,-2.13333 7.46666,-3.73333 l 90.13328,-4.26666 h 54.9333 q 1.6,0 5.86666,-0.53334 4.26667,-0.53333 8.53333,-1.6 5.33333,-1.06666 11.2,-2.13333 z m -50.66663,54.39997 q -2.13333,0.53333 -4.8,1.06666 -2.66666,1.06667 -5.86666,2.13334 -3.2,0.53333 -6.93333,3.19999 -3.73333,0 -7.46666,3.73334 -3.2,3.19999 -3.2,10.66666 v 9.06666 20.79998 9.06667 q 0,4.26666 -2.13333,7.99999 -2.13334,3.2 -2.13334,6.4 l 2.13334,1.06666 q 1.06666,1.06667 1.59999,2.13333 0.53334,0.53334 0.53334,3.2 -1.6,5.33333 1.06666,10.13333 2.66667,4.26666 7.46667,7.99999 4.79999,3.2 10.13332,5.33333 5.86667,1.6 9.6,1.6 4.79999,-2.13333 9.59999,-4.26666 4.26667,-1.6 7.46666,-3.2 3.73333,-1.6 6.4,-1.6 l 10.66666,4.26667 q 6.93333,0 11.73333,-5.33333 4.79999,-5.86667 7.46666,-12.8 3.2,-7.46666 4.8,-13.86665 1.59999,-6.93333 2.66666,-9.06666 l -3.2,-14.93333 q 0,-3.73333 -1.06666,-6.93333 -0.53334,-3.73333 -4.8,-7.99999 0,-3.2 -1.06667,-9.6 -0.53333,-6.39999 -4.79999,-9.59999 -1.6,0 -8,-1.6 -5.86666,-1.6 -13.33332,-3.73333 -6.93333,-2.13333 -14.4,-3.73333 -6.93332,-1.6 -10.13332,-1.6 z" />
    <path
       id="path120"
       style="font-size:433.333px"
       d="m 1086.2381,199.05427 q 6.0666,0 14.7333,0.43334 9.1,0.43333 15.1667,3.03333 6.5,0 8.2333,5.19999 2.1666,5.2 5.2,11.69999 1.7333,1.73334 3.9,4.76667 2.6,3.03333 4.3333,6.49999 2.1667,3.03333 3.4667,6.5 1.3,3.46666 1.3,6.06666 l -3.4667,38.56664 q 0,12.13332 -5.2,26.86664 -5.2,14.73333 -15.1666,26.43332 -3.4667,3.46666 -5.2,7.79999 -1.3,3.9 -3.0334,8.23333 -1.3,4.33333 -3.4666,9.09999 -1.7334,4.33333 -5.2,8.66666 -2.6,3.03333 -6.0667,7.36666 -3.0333,4.33333 -6.9333,9.1 -3.4667,4.33333 -7.8,8.23332 -3.9,3.46667 -8.2333,5.2 -6.5,3.46666 -10.8334,6.06666 -4.3333,2.6 -7.8,4.33333 -3.4666,1.73333 -7.3666,2.16667 -3.4667,0.86666 -7.8,0.86666 -6.5,0 -12.1333,-3.03333 -5.6334,-3.03333 -9.9667,-7.79999 -3.9,-5.2 -6.5,-11.26666 -2.6,-6.5 -2.6,-12.99999 v -29.03331 q 0,-2.6 -1.7333,-4.76667 -1.7334,-2.16666 -1.7334,-12.13332 -0.4333,-12.56666 6.0667,-30.33331 6.5,-17.76665 15.1667,-34.66664 9.0999,-17.33332 17.7666,-30.33331 9.1,-13.43333 13.8667,-16.46666 4.7666,-3.03333 7.8,-6.49999 3.4666,-3.9 6.5,-6.93333 3.0333,-3.03333 6.0666,-4.76666 3.4667,-2.16667 8.6667,-2.16667 z m 2.1666,49.39997 q -6.9333,0 -14.2999,6.06666 -6.9334,5.63333 -13,13.43332 -6.0667,7.36666 -10.8334,15.16666 -4.7666,7.36666 -6.5,10.83332 l -4.3333,16.46666 q -1.7333,6.06666 -3.0333,11.69999 -0.8667,5.63333 -0.8667,6.93332 v 8.23333 q 1.7333,1.3 3.0333,5.2 1.3,3.9 3.0334,7.79999 2.1666,3.9 4.7666,6.93333 2.6,3.03333 7.3667,3.03333 8.6667,-3.9 16.0333,-7.79999 6.0667,-3.46667 11.7,-7.36666 6.0667,-3.9 8.2333,-7.8 2.6,-6.06666 5.6334,-14.29999 3.4666,-8.23332 6.5,-15.59999 -0.8667,-3.46666 1.7333,-6.93332 3.0333,-3.46667 3.0333,-6.5 v -12.13332 q 0,-2.16667 -1.3,-7.36666 -0.8666,-5.63333 -3.4666,-11.26666 -2.1667,-6.06666 -5.6334,-10.39999 -3.4666,-4.33333 -7.8,-4.33333 z" />
    <path
       id="path123"
       style="font-size:533.333px"
       d="m 1350.7588,141.08763 h 10.1333 14.9333 q 11.2,0 18.6667,9.6 8,9.06666 12.2666,20.79999 4.8,11.73332 6.9334,22.39998 2.1333,10.13333 2.1333,12.26666 0,4.26667 0.5333,6.93333 0.5334,2.13333 1.6,4.26666 1.0667,2.13334 2.1334,3.73334 0,1.59999 -0.5334,3.73333 -1.0666,3.73333 -3.7333,6.39999 0,3.73333 -0.5333,7.46667 -0.5334,3.19999 -3.7334,3.19999 -2.6666,0 -8.5333,-5.86666 -5.8667,-6.4 -12.2667,-13.86666 -7.4666,-9.06666 -16.5333,-20.26665 -5.8666,-3.2 -16,-6.93333 -9.6,-3.73333 -18.6666,-6.93333 -11.2,-3.73333 -22.9334,-6.93333 -17.0666,0 -34.1333,6.4 -16.5333,6.39999 -30.3999,18.66665 -13.3334,12.26666 -22.9334,29.86665 -9.0666,17.59999 -10.6666,39.99998 0,10.66666 -2.1334,17.06665 -2.1333,6.4 -2.1333,13.86666 0,7.46666 0.5333,12.79999 0.5334,4.8 3.7334,12.26666 3.7333,11.19999 10.6666,23.99999 6.9334,12.79999 16,23.99998 9.6,10.66666 21.3333,18.13332 11.7334,6.93333 25.0667,6.93333 l 19.2,-6.39999 q 7.4666,0 16,-5.33333 9.0666,-5.86667 9.0666,-16.53333 v -10.66666 q -1.0666,-6.39999 -2.6666,-12.79999 -1.6,-6.93333 -4.8,-13.86666 -4.2667,-7.46666 -10.6667,-14.93332 -5.8666,-8 -10.1333,-10.13333 -7.4667,-2.66666 -7.4667,-7.46666 0,-2.13333 2.1334,-3.2 2.6666,-1.6 5.8666,-2.13333 3.7334,-0.53333 8.5333,-0.53333 h 23.4667 25.6 10.1333 q 3.7333,0 5.8667,-0.53334 2.6666,-0.53333 5.3333,-1.06666 2.6667,-1.06667 6.9333,-1.6 4.2667,-1.06667 11.7334,-1.06667 3.7333,1.06667 6.9333,2.66667 2.6667,1.06666 4.8,3.2 2.6667,2.13333 2.6667,4.26666 0,3.2 -2.6667,10.66666 -2.6667,6.93333 -5.8667,6.93333 h -5.8666 q -11.2,0 -18.6667,8.53333 -6.9333,8.53333 -6.9333,15.46665 v 14.93333 15.99999 q 0,6.93333 -2.1334,10.66666 -2.1333,3.73333 -2.1333,11.73333 1.0667,4.26666 1.6,8.53332 0.5333,3.73333 0,8.53333 0,4.26667 -1.6,8 0,3.73333 -2.6667,6.39999 -2.1333,2.13334 -4.7999,4.26667 -3.2,2.13333 -7.4667,4.26666 l -35.7333,5.86666 h -8.5334 q -2.1333,0 -6.9333,-1.06666 -4.2666,-0.53333 -9.6,-2.13333 -4.8,-1.06667 -10.6666,-2.13334 -5.3334,-0.53333 -10.1334,-0.53333 h -14.4 q -2.6666,0 -7.4666,-1.06666 -4.8,-1.06667 -9.0667,-3.2 -8,-2.66667 -16,-3.73333 -8,-1.06667 -12.2666,-1.06667 -1.6,-2.13333 -5.3334,-3.2 -3.2,-1.6 -7.4666,-3.2 -3.7333,-1.6 -7.4667,-3.73333 -3.2,-2.13333 -4.8,-5.86666 -4.2666,-1.6 -11.2,-10.66666 -6.4,-9.59999 -12.8,-21.33332 -6.4,-11.73333 -11.2,-23.46665 -4.8,-12.26666 -4.8,-20.26666 v -9.06666 q 0,-4.26666 -3.1999,-10.13333 -2.6667,-6.39999 -2.6667,-10.66666 v -20.79998 -14.39999 q 3.2,-8.53333 5.8666,-15.99999 2.1334,-6.4 3.7334,-12.8 2.1333,-6.93333 2.1333,-11.19999 l 4.2667,-9.06666 q 0,-11.73333 9.0666,-25.06665 9.0667,-13.33333 21.3334,-25.06665 12.7999,-11.73333 26.1333,-19.19999 13.8666,-8 23.4666,-8 4.2667,-0.53333 8,-1.06666 3.2,-0.53334 6.4,-1.06667 3.2,-0.53333 5.3333,-0.53333 h 5.8667 q 8,0 11.2,-0.53334 3.7333,-1.06666 6.9333,-2.13333 3.2,-1.6 7.4667,-2.13333 4.8,-1.06667 14.4,-1.06667 h 20.8 z" />
  </g>
</svg>
