<?xml version="1.0" encoding="UTF-8" standalone="no"?>
<svg
   xmlns:dc="http://purl.org/dc/elements/1.1/"
   xmlns:cc="http://creativecommons.org/ns#"
   xmlns:rdf="http://www.w3.org/1999/02/22-rdf-syntax-ns#"
   xmlns:svg="http://www.w3.org/2000/svg"
   xmlns="http://www.w3.org/2000/svg"
   xmlns:sodipodi="http://sodipodi.sourceforge.net/DTD/sodipodi-0.dtd"
   xmlns:inkscape="http://www.inkscape.org/namespaces/inkscape"
   viewBox="0 0 513.28772 689.1369"
   version="1.1"
   id="svg14"
   sodipodi:docname="CRoG-king-paths.svg"
   width="513.28772"
   height="689.1369"
   inkscape:export-filename="/Users/scott/dev/chemical-roles/art/CRoG-king-100.png"
   inkscape:export-xdpi="13.930469"
   inkscape:export-ydpi="13.930469"
   inkscape:version="1.0 (4035a4f, 2020-05-01)">
  <title
     id="title295">The CRoG King</title>
  <g
     style="font-size:286.216px;line-height:1.25;font-family:Trattatello;-inkscape-font-specification:Trattatello;letter-spacing:-5.36655px;stroke-width:0.536655"
     id="text1595"
     aria-label="CRoG">
    <path
       id="path146"
       style="font-size:286.216px;stroke-width:0.536655"
       d="m 103.5821,499.69002 q 4.29324,0 6.29675,2.00351 2.28973,1.7173 3.43459,4.57946 1.14487,2.86216 1.14487,6.01053 0.28621,2.86216 0.28621,4.86568 v 5.4381 q -1.71729,6.58297 -6.01053,12.02107 -4.00703,5.43811 -10.589997,5.43811 -4.29324,0 -9.158912,-2.57595 -4.865672,-2.86216 -10.876208,-2.86216 -6.296752,0 -12.307288,4.57946 -6.010536,4.29324 -10.876208,10.30377 -4.865672,6.01054 -8.014049,12.30729 -2.86216,6.01054 -2.86216,9.44513 v 8.01405 10.87621 q 0,3.43459 1.144864,11.73485 1.144864,8.30027 3.720808,17.17296 2.575945,8.58648 6.582969,15.45567 4.29324,6.58296 10.589992,6.58296 l 5.72432,-2.28972 q 6.582968,0 12.307288,-1.43108 5.72432,-1.7173 10.589992,-6.58297 6.296749,-7.44162 12.021069,-11.73486 1.7173,-1.43108 4.00703,-2.00351 2.28973,-0.57243 4.00702,-0.57243 0.57243,0.57243 1.43108,1.71729 1.7173,2.28973 1.7173,4.00703 0,6.29675 -4.57946,14.59701 -4.57945,8.01405 -11.16242,15.45567 -6.296755,7.1554 -13.165939,12.30729 -6.582968,5.15189 -10.876208,5.15189 h -2.289728 q -4.007024,0.85864 -7.441616,1.71729 -3.148376,0.57243 -6.010536,1.14487 -2.86216,0.57243 -4.007024,0.57243 -2.289728,0 -6.582968,-2.00351 -4.007025,-2.00352 -8.586481,-4.86568 -4.579456,-2.57594 -8.300264,-5.4381 -3.720808,-3.14838 -4.579456,-5.4381 -1.144864,-0.85865 -3.148376,-5.43811 -1.717296,-4.86567 -3.720808,-10.58999 -1.717296,-6.01054 -3.148376,-11.73486 -1.144864,-5.72432 -1.144864,-8.58648 V 610.1694 Q 18.289728,608.4521 17.43108,607.02102 16,604.15886 16,602.15535 q 0.572432,-3.43459 1.43108,-6.58297 0.572432,-2.57594 1.144864,-5.4381 0.572432,-2.86216 0.572432,-4.57946 v -6.29675 q 0,-0.85865 -0.572432,-2.00351 Q 18.003512,575.82348 17.43108,574.3924 16.572432,572.96132 16,571.24402 l 3.148376,-8.8727 v -5.4381 q 2.289728,-4.86567 4.29324,-8.8727 1.717296,-3.43459 3.434592,-6.58296 2.003512,-3.14838 3.434592,-4.57946 0.858648,-5.4381 4.29324,-9.73134 3.434592,-4.29324 8.014048,-8.01405 4.865672,-3.72081 10.303777,-6.86919 5.438104,-3.14837 10.876208,-6.29675 3.148376,-0.57243 6.296752,-1.43108 2.289728,-0.57243 4.579456,-1.14486 2.575944,-0.57243 3.434592,-0.57243 h 5.72432 10.876208 z" />
    <path
       id="path148"
       style="font-size:286.216px;stroke-width:0.536655"
       d="m 229.49478,499.69002 q 5.72432,0 10.58999,4.57946 5.15189,4.29324 9.15892,8.01404 2.28972,6.86919 7.1554,10.30378 1.71729,2.00351 3.43459,4.29324 1.71729,2.28973 2.28973,5.4381 1.14486,0 2.28972,2.57595 1.14487,2.28973 2.00352,5.72432 0.85864,3.14837 1.43108,6.01053 0.57243,2.86216 0.57243,3.72081 0,4.00703 -1.43108,8.8727 -1.43108,4.86567 -3.72081,9.73134 -2.00351,4.86567 -4.57946,9.44513 -2.28972,4.29324 -4.00702,7.1554 -1.14486,2.00351 -3.14838,3.14838 -1.71729,1.14486 -3.43459,2.28972 -1.71729,0.85865 -3.14837,2.57595 -1.14487,1.71729 -1.14487,4.57945 0,3.14838 1.7173,8.30027 1.71729,5.15189 4.29324,10.30377 2.57594,5.15189 5.15189,9.15892 2.86216,4.00702 4.57945,4.86567 3.43459,2.28973 6.01054,5.72432 2.86216,3.43459 5.72432,6.86918 3.14837,3.43459 6.58297,6.29676 3.43459,2.57594 8.01404,3.43459 1.7173,0.57243 5.43811,2.28973 3.72081,1.43108 5.72432,3.43459 1.71729,1.71729 1.71729,2.57594 0.28622,0.57243 -0.28621,2.86216 -0.85865,3.14838 -4.29324,4.57946 -3.14838,1.43108 -7.1554,1.71729 -3.72081,0.57244 -6.86919,0.28622 -3.14837,0 -3.7208,-0.28622 -2.00352,-1.71729 -5.43811,-1.71729 -3.14837,0 -5.15189,-0.57243 -7.72783,-4.57946 -10.8762,-7.44162 -3.14838,-2.86216 -7.44162,-5.4381 -1.7173,-0.85865 -4.29324,-2.86216 -2.57595,-2.28973 -5.72432,-5.15189 -2.86216,-2.86216 -6.01054,-6.01054 -2.86216,-3.14838 -5.4381,-5.72432 -3.43459,-4.29324 -6.01054,-8.30026 -2.28973,-4.00703 -4.29324,-7.44162 -1.71729,-3.72081 -3.43459,-6.58297 -1.7173,-3.14837 -3.72081,-4.86567 -4.00702,-2.28973 -6.01053,-4.29324 -1.7173,-2.00351 -5.72432,-2.00351 -3.4346,0 -5.43811,2.28973 -1.71729,2.00351 -2.86216,4.86567 -0.85865,2.86216 -1.14486,6.01053 -0.28622,3.14838 -0.28622,5.15189 l 3.14838,13.45215 v 5.72432 q 0,6.86919 4.29324,10.30378 4.57945,3.43459 9.73134,5.72432 5.15189,2.28973 9.44513,4.57946 4.57946,2.00351 4.57946,6.29675 0,2.00351 -2.00352,3.43459 -2.00351,1.43108 -3.7208,1.43108 h -10.30378 l -16.0281,-2.28973 h -6.29675 -13.45215 -4.86567 -11.16243 q -0.85864,0 -5.72432,-0.57243 -4.57945,-0.28621 -10.01756,-1.43108 -5.15188,-0.85865 -9.44512,-2.86216 -4.29324,-1.71729 -4.29324,-4.86567 0,-0.85865 0.85864,-1.7173 0.85865,-0.85864 2.00352,-1.71729 1.14486,-1.14487 2.86216,-2.00351 0.85864,0 2.57594,0.28621 1.7173,0.28622 3.43459,0.57243 2.00351,0.28622 4.29324,0.57244 h 5.72432 q 5.72432,0 9.44513,-3.14838 4.00702,-3.43459 4.00702,-7.1554 v -30.05268 -46.36699 l 2.28973,-20.60756 q -0.85865,-2.86216 -1.14486,-6.86918 -0.28622,-4.00702 -1.14487,-7.44162 -0.57243,-3.7208 -2.57594,-6.58296 -1.7173,-2.86216 -5.4381,-3.72081 h -11.16243 q -3.14837,0 -6.29675,-0.57243 -3.14838,-0.57244 -6.01054,-2.00352 -2.57594,-1.43108 -4.29324,-4.00702 -1.71729,-2.57594 -1.71729,-6.86918 0,-0.85865 1.14486,-1.7173 1.43108,-1.14486 2.86216,-2.00351 1.7173,-1.14487 4.00703,-2.00351 l 48.3705,-2.28973 h 29.48025 q 0.85865,0 3.14837,-0.28622 2.28973,-0.28621 4.57946,-0.85865 2.86216,-0.57243 6.01054,-1.14486 z m -27.19052,29.19403 q -1.14486,0.28622 -2.57594,0.57243 -1.43108,0.57244 -3.14838,1.14487 -1.7173,0.28621 -3.72081,1.71729 -2.00351,0 -4.00702,2.00352 -1.7173,1.71729 -1.7173,5.72432 v 4.86567 11.16242 4.86567 q 0,2.28973 -1.14486,4.29324 -1.14487,1.7173 -1.14487,3.4346 l 1.14487,0.57243 q 0.57243,0.57243 0.85865,1.14486 0.28621,0.28622 0.28621,1.7173 -0.85865,2.86216 0.57243,5.4381 1.43108,2.28973 4.00703,4.29324 2.57594,1.7173 5.4381,2.86216 3.14838,0.85865 5.15189,0.85865 2.57594,-1.14486 5.15189,-2.28973 2.28973,-0.85865 4.00702,-1.71729 2.00351,-0.85865 3.43459,-0.85865 l 5.72432,2.28973 q 3.72081,0 6.29676,-2.86216 2.57594,-3.14838 4.00702,-6.86919 1.7173,-4.00702 2.57594,-7.44161 0.85865,-3.72081 1.43108,-4.86568 l -1.71729,-8.01404 q 0,-2.00352 -0.57243,-3.72081 -0.28622,-2.00351 -2.57595,-4.29324 0,-1.7173 -0.57243,-5.15189 -0.28622,-3.43459 -2.57594,-5.15189 -0.85865,0 -4.29324,-0.85865 -3.14838,-0.85864 -7.1554,-2.00351 -3.72081,-1.14486 -7.72784,-2.00351 -3.7208,-0.85865 -5.4381,-0.85865 z" />
    <path
       id="path150"
       style="font-size:232.55px;stroke-width:0.536655"
       d="m 318.12325,533.94675 q 3.2557,0 7.9067,0.23255 4.88355,0.23255 8.13925,1.62785 3.48825,0 4.41845,2.7906 1.16275,2.7906 2.7906,6.27885 0.9302,0.9302 2.09295,2.55805 1.3953,1.62785 2.3255,3.48825 1.16275,1.62785 1.8604,3.48825 0.69765,1.8604 0.69765,3.2557 l -1.8604,20.69695 q 0,6.5114 -2.7906,14.4181 -2.7906,7.9067 -8.13925,14.18555 -1.8604,1.8604 -2.7906,4.1859 -0.69765,2.09295 -1.62785,4.41845 -0.69765,2.3255 -1.8604,4.88355 -0.9302,2.3255 -2.7906,4.651 -1.3953,1.62785 -3.2557,3.95335 -1.62785,2.3255 -3.7208,4.88355 -1.8604,2.3255 -4.1859,4.41845 -2.09295,1.8604 -4.41845,2.7906 -3.48825,1.8604 -5.81375,3.2557 -2.3255,1.3953 -4.1859,2.3255 -1.8604,0.9302 -3.95335,1.16275 -1.8604,0.4651 -4.1859,0.4651 -3.48825,0 -6.5114,-1.62785 -3.02315,-1.62785 -5.34865,-4.1859 -2.09295,-2.7906 -3.48825,-6.0463 -1.3953,-3.48825 -1.3953,-6.9765 v -15.58085 q 0,-1.3953 -0.9302,-2.55805 -0.9302,-1.16275 -0.9302,-6.5114 -0.23255,-6.74395 3.2557,-16.2785 3.48825,-9.53455 8.13925,-18.604 4.88355,-9.302 9.53455,-16.2785 4.88355,-7.20905 7.4416,-8.8369 2.55805,-1.62785 4.1859,-3.48825 1.8604,-2.09295 3.48825,-3.7208 1.62785,-1.62785 3.2557,-2.55805 1.8604,-1.16275 4.651,-1.16275 z m 1.16275,26.5107 q -3.7208,0 -7.67415,3.2557 -3.7208,3.02315 -6.9765,7.20905 -3.2557,3.95335 -5.81375,8.13925 -2.55805,3.95335 -3.48825,5.81375 l -2.3255,8.8369 q -0.9302,3.2557 -1.62785,6.27885 -0.4651,3.02315 -0.4651,3.7208 v 4.41845 q 0.9302,0.69765 1.62785,2.7906 0.69765,2.09295 1.62785,4.1859 1.16275,2.09295 2.55805,3.7208 1.3953,1.62785 3.95335,1.62785 4.651,-2.09295 8.60435,-4.1859 3.2557,-1.8604 6.27885,-3.95335 3.2557,-2.09295 4.41845,-4.1859 1.3953,-3.2557 3.02315,-7.67415 1.8604,-4.41845 3.48825,-8.3718 -0.4651,-1.8604 0.9302,-3.7208 1.62785,-1.8604 1.62785,-3.48825 v -6.5114 q 0,-1.16275 -0.69765,-3.95335 -0.4651,-3.02315 -1.8604,-6.0463 -1.16275,-3.2557 -3.02315,-5.5812 -1.8604,-2.3255 -4.1859,-2.3255 z" />
    <path
       id="path152"
       style="font-size:286.216px;stroke-width:0.536655"
       d="m 460.07964,502.8384 h 5.43811 8.01405 q 6.01053,0 10.01756,5.15188 4.29324,4.86568 6.58297,11.16243 2.57594,6.29675 3.7208,12.02107 1.14487,5.4381 1.14487,6.58297 0,2.28973 0.28621,3.72081 0.28622,1.14486 0.85865,2.28972 0.57243,1.14487 1.14487,2.00352 0,0.85864 -0.28622,2.00351 -0.57243,2.00351 -2.00351,3.43459 0,2.00351 -0.28622,4.00702 -0.28621,1.7173 -2.00351,1.7173 -1.43108,0 -4.57946,-3.14838 -3.14837,-3.43459 -6.58296,-7.44161 -4.00703,-4.86567 -8.8727,-10.87621 -3.14838,-1.7173 -8.58648,-3.72081 -5.15189,-2.00351 -10.01756,-3.72081 -6.01054,-2.00351 -12.30729,-3.7208 -9.15891,0 -18.31782,3.43459 -8.8727,3.43459 -16.31432,10.01756 -7.1554,6.58297 -12.30728,16.02809 -4.86568,9.44513 -5.72432,21.4662 0,5.72432 -1.14487,9.15892 -1.14486,3.43459 -1.14486,7.44161 0,4.00703 0.28621,6.86919 0.28622,2.57594 2.00352,6.58296 2.00351,6.01054 5.72432,12.87972 3.7208,6.86919 8.58648,12.87972 5.15188,5.72432 11.44864,9.73135 6.29675,3.72081 13.45215,3.72081 l 10.30377,-3.4346 q 4.00703,0 8.58648,-2.86216 4.86568,-3.14837 4.86568,-8.87269 v -5.72432 q -0.57244,-3.43459 -1.43108,-6.86919 -0.85865,-3.7208 -2.57595,-7.44161 -2.28973,-4.00703 -5.72432,-8.01405 -3.14837,-4.29324 -5.4381,-5.4381 -4.00703,-1.43108 -4.00703,-4.00703 0,-1.14486 1.14487,-1.71729 1.43108,-0.85865 3.14837,-1.14487 2.00352,-0.28621 4.57946,-0.28621 h 12.5935 13.73837 5.43811 q 2.00351,0 3.14837,-0.28622 1.43108,-0.28622 2.86216,-0.57243 1.43108,-0.57243 3.72081,-0.85865 2.28973,-0.57243 6.29675,-0.57243 2.00352,0.57243 3.72081,1.43108 1.43108,0.57243 2.57595,1.71729 1.43108,1.14487 1.43108,2.28973 0,1.7173 -1.43108,5.72432 -1.43108,3.72081 -3.14838,3.72081 h -3.14838 q -6.01053,0 -10.01756,4.57946 -3.7208,4.57945 -3.7208,8.30026 v 8.01405 8.58648 q 0,3.72081 -1.14487,5.72432 -1.14486,2.00351 -1.14486,6.29675 0.57243,2.28973 0.85864,4.57946 0.28622,2.00351 0,4.57945 0,2.28973 -0.85864,4.29324 0,2.00352 -1.43108,3.4346 -1.14487,1.14486 -2.57595,2.28972 -1.71729,1.14487 -4.00702,2.28973 l -19.17647,3.14838 h -4.57946 q -1.14486,0 -3.72081,-0.57243 -2.28973,-0.28622 -5.15189,-1.14487 -2.57594,-0.57243 -5.72432,-1.14486 -2.86216,-0.28622 -5.4381,-0.28622 h -7.72783 q -1.43108,0 -4.00703,-0.57243 -2.57594,-0.57243 -4.86567,-1.7173 -4.29324,-1.43108 -8.58648,-2.00351 -4.29324,-0.57243 -6.58297,-0.57243 -0.85864,-1.14486 -2.86216,-1.7173 -1.71729,-0.85864 -4.00702,-1.71729 -2.00351,-0.85865 -4.00702,-2.00351 -1.7173,-1.14487 -2.57595,-3.14838 -2.28973,-0.85865 -6.01053,-5.72432 -3.4346,-5.15189 -6.86919,-11.44864 -3.43459,-6.29675 -6.01053,-12.59351 -2.57595,-6.58296 -2.57595,-10.8762 v -4.86568 q 0,-2.28972 -1.71729,-5.4381 Q 351.89,596.43103 351.89,594.1413 v -11.16242 -7.72784 q 1.71729,-4.57945 3.14837,-8.58648 1.14487,-3.43459 2.00351,-6.86918 1.14487,-3.72081 1.14487,-6.01054 l 2.28973,-4.86567 q 0,-6.29675 4.86567,-13.45215 4.86567,-7.1554 11.44864,-13.45215 6.86918,-6.29675 14.02458,-10.30378 7.44162,-4.29324 12.59351,-4.29324 2.28972,-0.28621 4.29324,-0.57243 1.71729,-0.28622 3.43459,-0.57243 1.71729,-0.28622 2.86216,-0.28622 h 3.14837 q 4.29324,0 6.01054,-0.28621 2.00351,-0.57244 3.72081,-1.14487 1.71729,-0.85865 4.00702,-1.14486 2.57595,-0.57243 7.72783,-0.57243 h 11.16243 z" />
  </g>
  <metadata
     id="metadata20">
    <rdf:RDF>
      <cc:Work
         rdf:about="">
        <dc:format>image/svg+xml</dc:format>
        <dc:type
           rdf:resource="http://purl.org/dc/dcmitype/StillImage" />
        <dc:title>The CRoG King</dc:title>
        <dc:date>2020-07-16</dc:date>
        <dc:creator>
          <cc:Agent>
            <dc:title>Scott Colby</dc:title>
          </cc:Agent>
        </dc:creator>
        <cc:license
           rdf:resource="http://creativecommons.org/licenses/by/3.0/" />
      </cc:Work>
    </rdf:RDF>
  </metadata>
  <defs
     id="defs18">
    <inkscape:path-effect
       background_color="#ffffffff"
       background="true"
       hide_mask="false"
       invert="false"
       uri="#mask-powermask-path-effect289"
       lpeversion="1"
       is_visible="true"
       id="path-effect289"
       effect="powermask" />
    <inkscape:path-effect
       background_color="#ffffffff"
       background="true"
       hide_mask="false"
       invert="false"
       uri="#mask-powermask-path-effect186"
       lpeversion="1"
       is_visible="true"
       id="path-effect186"
       effect="powermask" />
    <inkscape:path-effect
       background_color="#ffffffff"
       background="true"
       hide_mask="false"
       invert="false"
       uri="#mask-powermask-path-effect161"
       lpeversion="1"
       is_visible="true"
       id="path-effect161"
       effect="powermask" />
    <mask
       id="mask-powermask-path-effect161"
       maskUnits="userSpaceOnUse">
      <path
         d="M 64.8125,105.71289 H 452.06055 V 335.0625 H 64.8125 Z"
         style="fill:#ffffff;fill-opacity:1"
         id="mask-powermask-path-effect161_box" />
      <path
         style=""
         d="m 322.64697,16.000003 c -25.7,0 -46.5,27.02 -46.5,60.359999 0,20.050001 7.7,38.849998 20.6,50.049998 5.6,81.2 -4.7,152.3 -53.6,160.1 -60.2,6.2 -73.2,-68.2 -84.6,-139 8.9,-15.7 9.2,-37.5 0.6,-57.299997 -13.4,-30.79 -43.6,-47.33 -67.560015,-36.92 -23.92,10.4 -32.47,43.72 -19.11,74.519997 9.44,21.7 27.770015,37.1 47.070015,39.6 33.9,57.6 71.8,152.4 51,180.2 -11.5,15.2 -32.7,10.4 -55.6,-4 3.7,-16.3 -4.5,-34.6 -20.810015,-46.7 -22.74,-16.9 -53.8,-16.5 -69.39,0.8 -15.599999,17.3 -9.77,45 13,61.9 17.78,13.1 41.33,16.1 58.44,7.4 67.860015,32.9 121.860015,99.5 175.560015,90.6 76.2,-12.6 76.5,-119.3 148.29999,-149.9 13.7,9.1 33.5,8.3 49.7,-2.1 21.2,-13.7 29.1,-39.2 17.7,-56.9 -11.4,-17.8 -37.9,-21.1 -59.2,-7.4 -15.9,10.3 -24.89999,27.8 -22.49999,43.9 -29.9,22.4 -68.5,39.7 -88.7,27.3 -16.2,-9.9 1.8,-122.3 19,-178.4 19.6,-7.7 33.1,-31.1 33.1,-57.749998 0,-33.339999 -20.8,-60.369999 -46.5,-60.359999 z"
         fill="#000000"
         fill-opacity="1"
         id="path159"
         inkscape:export-xdpi="96"
         inkscape:export-ydpi="96" />
    </mask>
    <mask
       id="mask-powermask-path-effect186"
       maskUnits="userSpaceOnUse">
      <path
         d="M 15,15 H 493.66352 V 459.42078 H 15 Z"
         style="fill:#ffffff;fill-opacity:1"
         id="mask-powermask-path-effect186_box" />
      <path
         d="m 317.3457,100.56641 c -2.53968,33.06333 -7.02392,65.94976 -12.9707,98.61328 -55.03071,-27.15615 -110.06114,-54.31255 -165.0918,-81.46875 -0.7848,2.60875 -2.0561,4.98857 -3.67968,7.10547 55.72379,27.49806 111.4482,54.99603 167.17187,82.49414 -5.58882,29.43933 -12.35321,58.67906 -20.02148,87.69922 -24.84381,3.56528 -49.68745,7.13198 -74.53125,10.69726 -34.08928,-53.94702 -59.17864,-113.52375 -81.02149,-173.83398 -2.37405,1.27403 -4.93168,2.21664 -7.56445,2.76172 21.49796,59.41732 46.13209,118.49405 79.69726,172.34765 -36.72065,5.26971 -73.44139,10.53917 -110.162105,15.8086 0.29014,1.53078 0.43219,3.10149 0.398437,4.69531 0.06235,1.14338 0.02028,2.25385 -0.08594,3.34179 38.186158,-5.47999 76.372478,-10.95943 114.558598,-16.43945 7.80809,12.11067 16.05661,23.9606 24.87891,35.45313 2.09578,-1.6781 4.33623,-3.15461 6.68554,-4.43164 -8.03756,-10.45884 -15.50162,-21.29155 -22.69922,-32.29493 22.54749,-3.23574 45.0951,-6.47128 67.64258,-9.70703 -3.34924,12.38438 -6.8493,24.72663 -10.47266,37.02539 2.61167,0.53228 5.17323,1.27338 7.65821,2.22071 3.96486,-13.43498 7.77772,-26.92781 11.41015,-40.47852 45.57227,-6.53998 91.14455,-13.08106 136.7168,-19.62109 -0.94748,-2.52507 -1.42721,-5.1865 -1.46289,-7.8711 -44.35026,6.36449 -88.70056,12.72914 -133.05078,19.09375 7.17118,-27.38917 13.52448,-54.99435 18.85937,-82.79882 38.34686,18.92311 76.69412,37.84632 115.04102,56.76953 0.66459,-2.59585 1.70492,-5.10052 3.07617,-7.40235 -38.83858,-19.16594 -77.67695,-38.33222 -116.51562,-57.49804 6.2045,-33.68669 10.89659,-67.63701 13.52148,-101.81446 -2.67712,0.26908 -5.37879,0.13601 -7.98633,-0.46679 z m 108.86133,182.89062 c -43.16546,24.01563 -85.82073,49.01785 -127.54101,75.52735 1.56076,2.11885 2.94814,4.36252 4.13867,6.70703 41.77848,-26.54399 84.52967,-51.59429 127.82031,-75.66797 -1.93805,-1.97921 -3.40651,-4.19795 -4.41797,-6.56641 z M 86.3125,340.14062 c -1.438666,2.31217 -3.289002,4.35209 -5.416016,6.07618 38.337536,26.44278 84.197356,40.27502 130.441406,45.16601 -0.25687,-2.71208 -0.2935,-5.4376 -0.0977,-8.14843 -44.4981,-4.84205 -88.36322,-18.15053 -124.92769,-43.09376 z M 344.62292,76.283257 c 0,11.561286 -9.37227,20.93356 -20.93356,20.933561 -11.56129,-10e-7 -20.93356,-9.372275 -20.93356,-20.933561 0,-11.561286 9.37227,-20.933561 20.93356,-20.933562 11.56129,1e-6 20.93356,9.372276 20.93356,20.933562 M 136.15957,110.3003 c 0,11.56129 -9.37227,20.93356 -20.93356,20.93356 -11.56128,0 -20.933557,-9.37228 -20.933558,-20.93356 0,-11.561285 9.372268,-20.933559 20.933558,-20.933561 11.56129,10e-7 20.93356,9.372275 20.93356,20.933561 M 85.57012,327.48599 c -10e-7,11.56129 -9.372275,20.93356 -20.933561,20.93356 -11.561286,0 -20.933561,-9.37227 -20.933562,-20.93356 10e-7,-11.56129 9.372276,-20.93356 20.933562,-20.93356 11.561286,0 20.93356,9.37227 20.933561,20.93356 M 470.2243,273.40762 c 0,11.56129 -9.37227,20.93356 -20.93356,20.93356 -11.56129,0 -20.93356,-9.37227 -20.93356,-20.93356 0,-11.56129 9.37227,-20.93356 20.93356,-20.93356 11.56129,0 20.93356,9.37227 20.93356,20.93356 M 304.06417,387.66998 c 0,24.56774 -19.91608,44.48382 -44.48382,44.48382 -24.56774,0 -44.48382,-19.91608 -44.48382,-44.48382 0,-24.56774 19.91608,-44.48382 44.48382,-44.48382 24.56774,0 44.48382,19.91608 44.48382,44.48382"
         style="color:#000000;font-style:normal;font-variant:normal;font-weight:normal;font-stretch:normal;font-size:medium;line-height:normal;font-family:sans-serif;font-variant-ligatures:normal;font-variant-position:normal;font-variant-caps:normal;font-variant-numeric:normal;font-variant-alternates:normal;font-variant-east-asian:normal;font-feature-settings:normal;font-variation-settings:normal;text-indent:0;text-align:start;text-decoration:none;text-decoration-line:none;text-decoration-style:solid;text-decoration-color:#000000;letter-spacing:normal;word-spacing:normal;text-transform:none;writing-mode:lr-tb;direction:ltr;text-orientation:mixed;dominant-baseline:auto;baseline-shift:baseline;text-anchor:start;white-space:normal;shape-padding:0;shape-margin:0;inline-size:0;clip-rule:nonzero;display:inline;overflow:visible;visibility:visible;opacity:1;isolation:auto;mix-blend-mode:normal;color-interpolation:sRGB;color-interpolation-filters:linearRGB;solid-color:#000000;solid-opacity:1;vector-effect:none;fill:#000000;fill-opacity:1;fill-rule:nonzero;stroke:none;stroke-width:8;stroke-linecap:butt;stroke-linejoin:miter;stroke-miterlimit:4;stroke-dasharray:none;stroke-dashoffset:0;stroke-opacity:1;color-rendering:auto;image-rendering:auto;shape-rendering:auto;text-rendering:auto;enable-background:accumulate;stop-color:#000000;stop-opacity:1"
         id="path183" />
    </mask>
    <filter
       y="-50"
       x="-50"
       width="100"
       height="100"
       style="color-interpolation-filters:sRGB"
       inkscape:label="filtermask-powermask-path-effect186"
       id="mask-powermask-path-effect186_inverse">
      <feColorMatrix
         result="fbSourceGraphic"
         type="saturate"
         values="1"
         id="mask-powermask-path-effect186_primitive1" />
      <feColorMatrix
         in="fbSourceGraphic"
         values="-1 0 0 0 1 0 -1 0 0 1 0 0 -1 0 1 0 0 0 1 0 "
         id="mask-powermask-path-effect186_primitive2" />
    </filter>
    <filter
       y="-50"
       x="-50"
       width="100"
       height="100"
       style="color-interpolation-filters:sRGB"
       inkscape:label="filtermask-powermask-path-effect161"
       id="mask-powermask-path-effect161_inverse">
      <feColorMatrix
         result="fbSourceGraphic"
         type="saturate"
         values="1"
         id="mask-powermask-path-effect161_primitive1" />
      <feColorMatrix
         in="fbSourceGraphic"
         values="-1 0 0 0 1 0 -1 0 0 1 0 0 -1 0 1 0 0 0 1 0 "
         id="mask-powermask-path-effect161_primitive2" />
    </filter>
    <mask
       id="mask-powermask-path-effect289"
       maskUnits="userSpaceOnUse">
      <path
         d="M 18.156,21 H 493.844 V 490.69 H 18.156 Z"
         style="fill:#ffffff;fill-opacity:1"
         id="mask-powermask-path-effect289_box" />
      <g
         style="fill:#000000"
         transform="matrix(0.26955523,0,0,0.26955523,535.82851,293.63801)"
         id="g285">
        <path
           inkscape:original-d="m 322.64697,16.000003 c -25.7,0 -46.5,27.02 -46.5,60.359999 0,20.050001 7.7,38.849998 20.6,50.049998 5.6,81.2 -4.7,152.3 -53.6,160.1 -60.2,6.2 -73.2,-68.2 -84.6,-139 8.9,-15.7 9.2,-37.5 0.6,-57.299997 -13.4,-30.79 -43.6,-47.33 -67.560015,-36.92 -23.92,10.4 -32.47,43.72 -19.11,74.519997 9.44,21.7 27.770015,37.1 47.070015,39.6 33.9,57.6 71.8,152.4 51,180.2 -11.5,15.2 -32.7,10.4 -55.6,-4 3.7,-16.3 -4.5,-34.6 -20.810015,-46.7 -22.74,-16.9 -53.8,-16.5 -69.39,0.8 -15.599999,17.3 -9.77,45 13,61.9 17.78,13.1 41.33,16.1 58.44,7.4 67.860015,32.9 121.860015,99.5 175.560015,90.6 76.2,-12.6 76.5,-119.3 148.29999,-149.9 13.7,9.1 33.5,8.3 49.7,-2.1 21.2,-13.7 29.1,-39.2 17.7,-56.9 -11.4,-17.8 -37.9,-21.1 -59.2,-7.4 -15.9,10.3 -24.89999,27.8 -22.49999,43.9 -29.9,22.4 -68.5,39.7 -88.7,27.3 -16.2,-9.9 1.8,-122.3 19,-178.4 19.6,-7.7 33.1,-31.1 33.1,-57.749998 0,-33.339999 -20.8,-60.369999 -46.5,-60.359999 z"
           inkscape:path-effect="#path-effect186"
           mask="url(#mask-powermask-path-effect186)"
           style="fill:#000000"
           inkscape:export-ydpi="96"
           inkscape:export-xdpi="96"
           id="path281"
           fill-opacity="1"
           fill="#000000"
           d="m 322.64697,16.000003 c -25.7,0 -46.5,27.02 -46.5,60.359999 0,20.050001 7.7,38.849998 20.6,50.049998 5.6,81.2 -4.7,152.3 -53.6,160.1 -60.2,6.2 -73.2,-68.2 -84.6,-139 8.9,-15.7 9.2,-37.5 0.6,-57.299997 -13.4,-30.79 -43.6,-47.33 -67.560015,-36.92 -23.92,10.4 -32.47,43.72 -19.11,74.519997 9.44,21.7 27.770015,37.1 47.070015,39.6 33.9,57.6 71.8,152.4 51,180.2 -11.5,15.2 -32.7,10.4 -55.6,-4 3.7,-16.3 -4.5,-34.6 -20.810015,-46.7 -22.74,-16.9 -53.8,-16.5 -69.39,0.8 -15.599999,17.3 -9.77,45 13,61.9 17.78,13.1 41.33,16.1 58.44,7.4 67.860015,32.9 121.860015,99.5 175.560015,90.6 76.2,-12.6 76.5,-119.3 148.29999,-149.9 13.7,9.1 33.5,8.3 49.7,-2.1 21.2,-13.7 29.1,-39.2 17.7,-56.9 -11.4,-17.8 -37.9,-21.1 -59.2,-7.4 -15.9,10.3 -24.89999,27.8 -22.49999,43.9 -29.9,22.4 -68.5,39.7 -88.7,27.3 -16.2,-9.9 1.8,-122.3 19,-178.4 19.6,-7.7 33.1,-31.1 33.1,-57.749998 0,-33.339999 -20.8,-60.369999 -46.5,-60.359999 z"
           transform="translate(-1262.7652,-179.72282)" />
        <path
           inkscape:original-d="m 116.99609,106.71289 -3.54101,7.17383 c 111.35491,54.9506 222.7115,109.90096 334.0664,164.85156 l 3.53907,-7.17383 C 339.70565,216.61385 228.351,161.66349 116.99609,106.71289 Z M 448.72266,271.19336 C 321.0861,289.51022 193.44907,307.82572 65.8125,326.14258 l 1.136719,7.91992 C 194.58579,315.74564 322.22282,297.42819 449.85938,279.11133 Z"
           inkscape:path-effect="#path-effect161"
           mask="url(#mask-powermask-path-effect161)"
           d="m 116.99609,106.71289 -3.54101,7.17383 c 111.35491,54.9506 222.7115,109.90096 334.0664,164.85156 l 3.53907,-7.17383 C 339.70565,216.61385 228.351,161.66349 116.99609,106.71289 Z M 448.72266,271.19336 C 321.0861,289.51022 193.44907,307.82572 65.8125,326.14258 l 1.136719,7.91992 C 194.58579,315.74564 322.22282,297.42819 449.85938,279.11133 Z"
           style="color:#000000;font-style:normal;font-variant:normal;font-weight:normal;font-stretch:normal;font-size:medium;line-height:normal;font-family:sans-serif;font-variant-ligatures:normal;font-variant-position:normal;font-variant-caps:normal;font-variant-numeric:normal;font-variant-alternates:normal;font-variant-east-asian:normal;font-feature-settings:normal;font-variation-settings:normal;text-indent:0;text-align:start;text-decoration:none;text-decoration-line:none;text-decoration-style:solid;text-decoration-color:#000000;letter-spacing:normal;word-spacing:normal;text-transform:none;writing-mode:lr-tb;direction:ltr;text-orientation:mixed;dominant-baseline:auto;baseline-shift:baseline;text-anchor:start;white-space:normal;shape-padding:0;shape-margin:0;inline-size:0;clip-rule:nonzero;display:inline;overflow:visible;visibility:visible;isolation:auto;mix-blend-mode:normal;color-interpolation:sRGB;color-interpolation-filters:linearRGB;solid-color:#000000;solid-opacity:1;vector-effect:none;fill:#000000;fill-opacity:1;fill-rule:nonzero;stroke:none;stroke-width:8;stroke-linecap:butt;stroke-linejoin:miter;stroke-miterlimit:4;stroke-dasharray:none;stroke-dashoffset:0;stroke-opacity:1;color-rendering:auto;image-rendering:auto;shape-rendering:auto;text-rendering:auto;enable-background:accumulate;stop-color:#000000"
           id="path283"
           transform="translate(-1262.7652,-179.72282)" />
      </g>
    </mask>
    <filter
       y="-50"
       x="-50"
       width="100"
       height="100"
       style="color-interpolation-filters:sRGB"
       inkscape:label="filtermask-powermask-path-effect289"
       id="mask-powermask-path-effect289_inverse">
      <feColorMatrix
         result="fbSourceGraphic"
         type="saturate"
         values="1"
         id="mask-powermask-path-effect289_primitive1" />
      <feColorMatrix
         in="fbSourceGraphic"
         values="-1 0 0 0 1 0 -1 0 0 1 0 0 -1 0 1 0 0 0 1 0 "
         id="mask-powermask-path-effect289_primitive2" />
    </filter>
  </defs>
  <sodipodi:namedview
     inkscape:document-rotation="0"
     pagecolor="#ffffff"
     bordercolor="#666666"
     borderopacity="1"
     objecttolerance="10"
     gridtolerance="10"
     guidetolerance="10"
     inkscape:pageopacity="0"
     inkscape:pageshadow="2"
     inkscape:window-width="1440"
     inkscape:window-height="773"
     id="namedview16"
     showgrid="false"
     lock-margins="true"
     fit-margin-top="16"
     fit-margin-left="16"
     fit-margin-right="16"
     fit-margin-bottom="16"
     inkscape:zoom="0.75136989"
     inkscape:cx="-66.009511"
     inkscape:cy="346.88066"
     inkscape:window-x="0"
     inkscape:window-y="23"
     inkscape:window-maximized="0"
     inkscape:current-layer="svg14" />
  <g
     inkscape:path-effect="#path-effect289"
     mask="url(#mask-powermask-path-effect289)"
     class=""
     id="g12"
     transform="translate(0.64386848,-6)">
    <path
       inkscape:original-d="m 176,22 v 86 c 80,32 80,32 160,0 V 22 L 288,70 256,22 224,70 Z m 159.543,108.31 c -4.742,0.195 -9.564,1.488 -14.205,4.167 -38.934,22.48 -89.77,21.953 -127.79,0.002 -6.09,-3.516 -12.284,-4.611 -18.144,-3.893 a 46.38,46.38 0 0 1 9.438,28.09 c 0,23.15 -17.037,42.83 -39.176,45.096 -12.775,14.92 -21.554,31.806 -24.387,49.982 44.73,-23.79 90.948,-35.572 137.065,-35.508 46.15,0.064 92.197,11.986 136.56,35.62 -2.69,-18.15 -11.217,-35.044 -23.795,-49.92 -0.585,0.025 -1.17,0.048 -1.76,0.048 -24.18,0 -43.447,-20.7 -43.447,-45.318 0,-10.64 3.601,-20.542 9.641,-28.363 z m -194.148,3.215 -0.002,0.002 c -12.67,0 -23.278,10.85 -23.278,25.15 0,14.298 10.608,25.147 23.278,25.147 12.67,0 23.277,-10.85 23.277,-25.148 0,-14.298 -10.607,-25.15 -23.276,-25.15 z m 227.953,0 v 0.002 c -12.67,0 -23.276,10.85 -23.276,25.15 0,14.298 10.607,25.147 23.276,25.147 12.67,0 23.277,-10.85 23.277,-25.148 0,-14.298 -10.608,-25.15 -23.277,-25.15 z m 68.396,93.375 c -9.361,-0.13 -18.96,1.646 -28.676,4.237 6.926,19.457 8.569,40.725 2.694,62.656 -4.26,15.896 0.934,37.475 11.7,54.758 l 4.69,7.53 -7.02,5.43 c -19.764,15.28 -36.439,25.107 -46.103,35.264 -9.664,10.158 -13.888,19.59 -10.916,40.875 0.484,12.745 6.068,17.054 13.668,24.97 19.876,-14.55 36.01,-23.888 68.344,-4.095 -6.738,-18.804 15.937,-29.76 46.719,-29.779 -36.91,-15.88 -64.98,-25.62 -86.438,-30.377 67.492,-72.188 97.182,-127.96 66,-159.187 C 461.421,230.388 449.78,227.068 437.744,226.9 Z M 73.67,227.018 c -12.65,0.034 -24.768,3.161 -34.076,12.166 -31.182,31.227 -1.492,87 66,159.187 -21.456,4.756 -49.528,14.497 -86.438,30.375 30.782,0.02 53.457,10.978 46.719,29.781 32.332,-19.792 48.469,-10.455 68.344,4.094 6.233,-8.55 16.31,-14.826 17.724,-24.969 2.972,-21.283 -1.25,-30.717 -10.914,-40.875 -9.664,-10.157 -26.34,-19.982 -46.105,-35.263 l -7.02,-5.428 4.692,-7.53 c 10.73,-17.227 15.857,-39.232 11.699,-54.76 -5.782,-21.571 -4.184,-42.44 2.537,-61.56 -10.425,-2.871 -22,-5.249 -33.162,-5.218 z m 184.67,9.539 c -46.096,-0.065 -92.3,12.827 -137.572,38.845 a 87.269,87.269 0 0 0 2.494,13.31 v 0.003 c 5.453,20.354 0.592,42.93 -9.485,62.297 15.89,11.634 30.344,20.524 41.479,32.228 10.36,10.89 16.795,25.133 16.955,43.713 -1.096,16.308 -9.158,39.273 -22.348,59.244 24.59,-14.237 42.135,-15.333 45.291,3.492 14.097,-17.783 25.698,-20.386 38.985,-8.035 -3.745,-31.452 -11.117,-52.887 -17.258,-65.097 -14.896,-36.567 -42.816,-61.484 -73.742,-83.424 l 11.359,-16.014 c 38.788,27.517 76.799,62.664 89.125,119.567 9.628,0.705 19.25,0.65 28.85,-0.16 12.362,-56.81 50.333,-91.919 89.084,-119.409 l 11.361,16.016 c -31.19,22.127 -59.334,47.28 -74.13,84.363 -6.046,12.357 -13.14,33.493 -16.794,64.158 13.29,-12.35 24.891,-9.747 38.988,8.036 3.153,-18.825 20.697,-17.73 45.288,-3.493 -13.51,-20.455 -21.645,-44.058 -22.42,-60.424 0.415,-18.01 6.809,-31.872 16.949,-42.533 11.135,-11.705 25.586,-20.595 41.474,-32.23 -10.064,-19.29 -14.99,-41.737 -9.48,-62.303 a 88.607,88.607 0 0 0 2.51,-13.266 c -44.85,-25.79 -90.85,-38.818 -136.961,-38.884 z"
       d="m 176,22 v 86 c 80,32 80,32 160,0 V 22 L 288,70 256,22 224,70 Z m 159.543,108.31 c -4.742,0.195 -9.564,1.488 -14.205,4.167 -38.934,22.48 -89.77,21.953 -127.79,0.002 -6.09,-3.516 -12.284,-4.611 -18.144,-3.893 a 46.38,46.38 0 0 1 9.438,28.09 c 0,23.15 -17.037,42.83 -39.176,45.096 -12.775,14.92 -21.554,31.806 -24.387,49.982 44.73,-23.79 90.948,-35.572 137.065,-35.508 46.15,0.064 92.197,11.986 136.56,35.62 -2.69,-18.15 -11.217,-35.044 -23.795,-49.92 -0.585,0.025 -1.17,0.048 -1.76,0.048 -24.18,0 -43.447,-20.7 -43.447,-45.318 0,-10.64 3.601,-20.542 9.641,-28.363 z m -194.148,3.215 -0.002,0.002 c -12.67,0 -23.278,10.85 -23.278,25.15 0,14.298 10.608,25.147 23.278,25.147 12.67,0 23.277,-10.85 23.277,-25.148 0,-14.298 -10.607,-25.15 -23.276,-25.15 z m 227.953,0 v 0.002 c -12.67,0 -23.276,10.85 -23.276,25.15 0,14.298 10.607,25.147 23.276,25.147 12.67,0 23.277,-10.85 23.277,-25.148 0,-14.298 -10.608,-25.15 -23.277,-25.15 z m 68.396,93.375 c -9.361,-0.13 -18.96,1.646 -28.676,4.237 6.926,19.457 8.569,40.725 2.694,62.656 -4.26,15.896 0.934,37.475 11.7,54.758 l 4.69,7.53 -7.02,5.43 c -19.764,15.28 -36.439,25.107 -46.103,35.264 -9.664,10.158 -13.888,19.59 -10.916,40.875 0.484,12.745 6.068,17.054 13.668,24.97 19.876,-14.55 36.01,-23.888 68.344,-4.095 -6.738,-18.804 15.937,-29.76 46.719,-29.779 -36.91,-15.88 -64.98,-25.62 -86.438,-30.377 67.492,-72.188 97.182,-127.96 66,-159.187 C 461.421,230.388 449.78,227.068 437.744,226.9 Z M 73.67,227.018 c -12.65,0.034 -24.768,3.161 -34.076,12.166 -31.182,31.227 -1.492,87 66,159.187 -21.456,4.756 -49.528,14.497 -86.438,30.375 30.782,0.02 53.457,10.978 46.719,29.781 32.332,-19.792 48.469,-10.455 68.344,4.094 6.233,-8.55 16.31,-14.826 17.724,-24.969 2.972,-21.283 -1.25,-30.717 -10.914,-40.875 -9.664,-10.157 -26.34,-19.982 -46.105,-35.263 l -7.02,-5.428 4.692,-7.53 c 10.73,-17.227 15.857,-39.232 11.699,-54.76 -5.782,-21.571 -4.184,-42.44 2.537,-61.56 -10.425,-2.871 -22,-5.249 -33.162,-5.218 z m 184.67,9.539 c -46.096,-0.065 -92.3,12.827 -137.572,38.845 a 87.269,87.269 0 0 0 2.494,13.31 v 0.003 c 5.453,20.354 0.592,42.93 -9.485,62.297 15.89,11.634 30.344,20.524 41.479,32.228 10.36,10.89 16.795,25.133 16.955,43.713 -1.096,16.308 -9.158,39.273 -22.348,59.244 24.59,-14.237 42.135,-15.333 45.291,3.492 14.097,-17.783 25.698,-20.386 38.985,-8.035 -3.745,-31.452 -11.117,-52.887 -17.258,-65.097 -14.896,-36.567 -42.816,-61.484 -73.742,-83.424 l 11.359,-16.014 c 38.788,27.517 76.799,62.664 89.125,119.567 9.628,0.705 19.25,0.65 28.85,-0.16 12.362,-56.81 50.333,-91.919 89.084,-119.409 l 11.361,16.016 c -31.19,22.127 -59.334,47.28 -74.13,84.363 -6.046,12.357 -13.14,33.493 -16.794,64.158 13.29,-12.35 24.891,-9.747 38.988,8.036 3.153,-18.825 20.697,-17.73 45.288,-3.493 -13.51,-20.455 -21.645,-44.058 -22.42,-60.424 0.415,-18.01 6.809,-31.872 16.949,-42.533 11.135,-11.705 25.586,-20.595 41.474,-32.23 -10.064,-19.29 -14.99,-41.737 -9.48,-62.303 a 88.607,88.607 0 0 0 2.51,-13.266 c -44.85,-25.79 -90.85,-38.818 -136.961,-38.884 z"
       fill="#000000"
       fill-opacity="1"
       id="path10" />
  </g>
</svg>
