<?xml version="1.0" encoding="UTF-8" standalone="no"?>
<svg
   xmlns:dc="http://purl.org/dc/elements/1.1/"
   xmlns:cc="http://creativecommons.org/ns#"
   xmlns:rdf="http://www.w3.org/1999/02/22-rdf-syntax-ns#"
   xmlns:svg="http://www.w3.org/2000/svg"
   xmlns="http://www.w3.org/2000/svg"
   xmlns:sodipodi="http://sodipodi.sourceforge.net/DTD/sodipodi-0.dtd"
   xmlns:inkscape="http://www.inkscape.org/namespaces/inkscape"
   inkscape:version="1.0 (4035a4f, 2020-05-01)"
   inkscape:export-ydpi="196.72998"
   inkscape:export-xdpi="196.72998"
   inkscape:export-filename="/Users/scott/dev/chemical-roles/art/CRoG-king-horizontal-1024.png"
   height="499.69"
   width="1623.4526"
   sodipodi:docname="CRoG-king-horizontal.svg"
   id="svg14"
   version="1.1"
   viewBox="0 0 1623.4526 499.69">
  <title
     id="title295">The CRoG King</title>
  <text
     id="text1595"
     y="463.60449"
     x="503.68884"
     style="font-size:647.918px;line-height:1.25;font-family:Trattatello;-inkscape-font-specification:Trattatello;letter-spacing:-12.1484px;stroke-width:1.21484"
     xml:space="preserve"><tspan
       style="font-size:647.918px;stroke-width:1.21484"
       y="463.60449"
       x="503.68884"
       id="tspan1593"
       sodipodi:role="line"
       dx="0 0 0 20.652386"
       dy="0 0 -24.296928 44.94931">CR<tspan
   style="font-size:526.433px;stroke-width:1.21484"
   id="tspan48"
   dy="-44.94931"
   dx="-42.519623">o</tspan>G</tspan></text>
  <metadata
     id="metadata20">
    <rdf:RDF>
      <cc:Work
         rdf:about="">
        <dc:format>image/svg+xml</dc:format>
        <dc:type
           rdf:resource="http://purl.org/dc/dcmitype/StillImage" />
        <dc:title>The CRoG King</dc:title>
        <dc:date>2020-07-16</dc:date>
        <dc:creator>
          <cc:Agent>
            <dc:title>Scott Colby</dc:title>
          </cc:Agent>
        </dc:creator>
        <cc:license
           rdf:resource="http://creativecommons.org/licenses/by/3.0/" />
      </cc:Work>
    </rdf:RDF>
  </metadata>
  <defs
     id="defs18">
    <inkscape:path-effect
       effect="powermask"
       id="path-effect289"
       is_visible="true"
       lpeversion="1"
       uri="#mask-powermask-path-effect289"
       invert="false"
       hide_mask="false"
       background="true"
       background_color="#ffffffff" />
    <inkscape:path-effect
       effect="powermask"
       id="path-effect186"
       is_visible="true"
       lpeversion="1"
       uri="#mask-powermask-path-effect186"
       invert="false"
       hide_mask="false"
       background="true"
       background_color="#ffffffff" />
    <inkscape:path-effect
       effect="powermask"
       id="path-effect161"
       is_visible="true"
       lpeversion="1"
       uri="#mask-powermask-path-effect161"
       invert="false"
       hide_mask="false"
       background="true"
       background_color="#ffffffff" />
    <mask
       maskUnits="userSpaceOnUse"
       id="mask-powermask-path-effect161">
      <path
         d="M 64.8125,105.71289 H 452.06055 V 335.0625 H 64.8125 Z"
         style="fill:#ffffff;fill-opacity:1"
         id="mask-powermask-path-effect161_box" />
      <path
         inkscape:export-ydpi="96"
         inkscape:export-xdpi="96"
         id="path159"
         fill-opacity="1"
         fill="#000000"
         d="m 322.64697,16.000003 c -25.7,0 -46.5,27.02 -46.5,60.359999 0,20.050001 7.7,38.849998 20.6,50.049998 5.6,81.2 -4.7,152.3 -53.6,160.1 -60.2,6.2 -73.2,-68.2 -84.6,-139 8.9,-15.7 9.2,-37.5 0.6,-57.299997 -13.4,-30.79 -43.6,-47.33 -67.560015,-36.92 -23.92,10.4 -32.47,43.72 -19.11,74.519997 9.44,21.7 27.770015,37.1 47.070015,39.6 33.9,57.6 71.8,152.4 51,180.2 -11.5,15.2 -32.7,10.4 -55.6,-4 3.7,-16.3 -4.5,-34.6 -20.810015,-46.7 -22.74,-16.9 -53.8,-16.5 -69.39,0.8 -15.599999,17.3 -9.77,45 13,61.9 17.78,13.1 41.33,16.1 58.44,7.4 67.860015,32.9 121.860015,99.5 175.560015,90.6 76.2,-12.6 76.5,-119.3 148.29999,-149.9 13.7,9.1 33.5,8.3 49.7,-2.1 21.2,-13.7 29.1,-39.2 17.7,-56.9 -11.4,-17.8 -37.9,-21.1 -59.2,-7.4 -15.9,10.3 -24.89999,27.8 -22.49999,43.9 -29.9,22.4 -68.5,39.7 -88.7,27.3 -16.2,-9.9 1.8,-122.3 19,-178.4 19.6,-7.7 33.1,-31.1 33.1,-57.749998 0,-33.339999 -20.8,-60.369999 -46.5,-60.359999 z"
         style="" />
    </mask>
    <mask
       maskUnits="userSpaceOnUse"
       id="mask-powermask-path-effect186">
      <path
         d="M 15,15 H 493.66352 V 459.42078 H 15 Z"
         style="fill:#ffffff;fill-opacity:1"
         id="mask-powermask-path-effect186_box" />
      <path
         id="path183"
         style="color:#000000;font-style:normal;font-variant:normal;font-weight:normal;font-stretch:normal;font-size:medium;line-height:normal;font-family:sans-serif;font-variant-ligatures:normal;font-variant-position:normal;font-variant-caps:normal;font-variant-numeric:normal;font-variant-alternates:normal;font-variant-east-asian:normal;font-feature-settings:normal;font-variation-settings:normal;text-indent:0;text-align:start;text-decoration:none;text-decoration-line:none;text-decoration-style:solid;text-decoration-color:#000000;letter-spacing:normal;word-spacing:normal;text-transform:none;writing-mode:lr-tb;direction:ltr;text-orientation:mixed;dominant-baseline:auto;baseline-shift:baseline;text-anchor:start;white-space:normal;shape-padding:0;shape-margin:0;inline-size:0;clip-rule:nonzero;display:inline;overflow:visible;visibility:visible;opacity:1;isolation:auto;mix-blend-mode:normal;color-interpolation:sRGB;color-interpolation-filters:linearRGB;solid-color:#000000;solid-opacity:1;vector-effect:none;fill:#000000;fill-opacity:1;fill-rule:nonzero;stroke:none;stroke-width:8;stroke-linecap:butt;stroke-linejoin:miter;stroke-miterlimit:4;stroke-dasharray:none;stroke-dashoffset:0;stroke-opacity:1;color-rendering:auto;image-rendering:auto;shape-rendering:auto;text-rendering:auto;enable-background:accumulate;stop-color:#000000;stop-opacity:1"
         d="m 317.3457,100.56641 c -2.53968,33.06333 -7.02392,65.94976 -12.9707,98.61328 -55.03071,-27.15615 -110.06114,-54.31255 -165.0918,-81.46875 -0.7848,2.60875 -2.0561,4.98857 -3.67968,7.10547 55.72379,27.49806 111.4482,54.99603 167.17187,82.49414 -5.58882,29.43933 -12.35321,58.67906 -20.02148,87.69922 -24.84381,3.56528 -49.68745,7.13198 -74.53125,10.69726 -34.08928,-53.94702 -59.17864,-113.52375 -81.02149,-173.83398 -2.37405,1.27403 -4.93168,2.21664 -7.56445,2.76172 21.49796,59.41732 46.13209,118.49405 79.69726,172.34765 -36.72065,5.26971 -73.44139,10.53917 -110.162105,15.8086 0.29014,1.53078 0.43219,3.10149 0.398437,4.69531 0.06235,1.14338 0.02028,2.25385 -0.08594,3.34179 38.186158,-5.47999 76.372478,-10.95943 114.558598,-16.43945 7.80809,12.11067 16.05661,23.9606 24.87891,35.45313 2.09578,-1.6781 4.33623,-3.15461 6.68554,-4.43164 -8.03756,-10.45884 -15.50162,-21.29155 -22.69922,-32.29493 22.54749,-3.23574 45.0951,-6.47128 67.64258,-9.70703 -3.34924,12.38438 -6.8493,24.72663 -10.47266,37.02539 2.61167,0.53228 5.17323,1.27338 7.65821,2.22071 3.96486,-13.43498 7.77772,-26.92781 11.41015,-40.47852 45.57227,-6.53998 91.14455,-13.08106 136.7168,-19.62109 -0.94748,-2.52507 -1.42721,-5.1865 -1.46289,-7.8711 -44.35026,6.36449 -88.70056,12.72914 -133.05078,19.09375 7.17118,-27.38917 13.52448,-54.99435 18.85937,-82.79882 38.34686,18.92311 76.69412,37.84632 115.04102,56.76953 0.66459,-2.59585 1.70492,-5.10052 3.07617,-7.40235 -38.83858,-19.16594 -77.67695,-38.33222 -116.51562,-57.49804 6.2045,-33.68669 10.89659,-67.63701 13.52148,-101.81446 -2.67712,0.26908 -5.37879,0.13601 -7.98633,-0.46679 z m 108.86133,182.89062 c -43.16546,24.01563 -85.82073,49.01785 -127.54101,75.52735 1.56076,2.11885 2.94814,4.36252 4.13867,6.70703 41.77848,-26.54399 84.52967,-51.59429 127.82031,-75.66797 -1.93805,-1.97921 -3.40651,-4.19795 -4.41797,-6.56641 z M 86.3125,340.14062 c -1.438666,2.31217 -3.289002,4.35209 -5.416016,6.07618 38.337536,26.44278 84.197356,40.27502 130.441406,45.16601 -0.25687,-2.71208 -0.2935,-5.4376 -0.0977,-8.14843 -44.4981,-4.84205 -88.36322,-18.15053 -124.92769,-43.09376 z M 344.62292,76.283257 c 0,11.561286 -9.37227,20.93356 -20.93356,20.933561 -11.56129,-10e-7 -20.93356,-9.372275 -20.93356,-20.933561 0,-11.561286 9.37227,-20.933561 20.93356,-20.933562 11.56129,1e-6 20.93356,9.372276 20.93356,20.933562 M 136.15957,110.3003 c 0,11.56129 -9.37227,20.93356 -20.93356,20.93356 -11.56128,0 -20.933557,-9.37228 -20.933558,-20.93356 0,-11.561285 9.372268,-20.933559 20.933558,-20.933561 11.56129,10e-7 20.93356,9.372275 20.93356,20.933561 M 85.57012,327.48599 c -10e-7,11.56129 -9.372275,20.93356 -20.933561,20.93356 -11.561286,0 -20.933561,-9.37227 -20.933562,-20.93356 10e-7,-11.56129 9.372276,-20.93356 20.933562,-20.93356 11.561286,0 20.93356,9.37227 20.933561,20.93356 M 470.2243,273.40762 c 0,11.56129 -9.37227,20.93356 -20.93356,20.93356 -11.56129,0 -20.93356,-9.37227 -20.93356,-20.93356 0,-11.56129 9.37227,-20.93356 20.93356,-20.93356 11.56129,0 20.93356,9.37227 20.93356,20.93356 M 304.06417,387.66998 c 0,24.56774 -19.91608,44.48382 -44.48382,44.48382 -24.56774,0 -44.48382,-19.91608 -44.48382,-44.48382 0,-24.56774 19.91608,-44.48382 44.48382,-44.48382 24.56774,0 44.48382,19.91608 44.48382,44.48382" />
    </mask>
    <filter
       id="mask-powermask-path-effect186_inverse"
       inkscape:label="filtermask-powermask-path-effect186"
       style="color-interpolation-filters:sRGB"
       height="100"
       width="100"
       x="-50"
       y="-50">
      <feColorMatrix
         id="mask-powermask-path-effect186_primitive1"
         values="1"
         type="saturate"
         result="fbSourceGraphic" />
      <feColorMatrix
         id="mask-powermask-path-effect186_primitive2"
         values="-1 0 0 0 1 0 -1 0 0 1 0 0 -1 0 1 0 0 0 1 0 "
         in="fbSourceGraphic" />
    </filter>
    <filter
       id="mask-powermask-path-effect161_inverse"
       inkscape:label="filtermask-powermask-path-effect161"
       style="color-interpolation-filters:sRGB"
       height="100"
       width="100"
       x="-50"
       y="-50">
      <feColorMatrix
         id="mask-powermask-path-effect161_primitive1"
         values="1"
         type="saturate"
         result="fbSourceGraphic" />
      <feColorMatrix
         id="mask-powermask-path-effect161_primitive2"
         values="-1 0 0 0 1 0 -1 0 0 1 0 0 -1 0 1 0 0 0 1 0 "
         in="fbSourceGraphic" />
    </filter>
    <mask
       maskUnits="userSpaceOnUse"
       id="mask-powermask-path-effect289">
      <path
         d="M 18.156,21 H 493.844 V 490.69 H 18.156 Z"
         style="fill:#ffffff;fill-opacity:1"
         id="mask-powermask-path-effect289_box" />
      <g
         id="g285"
         transform="matrix(0.26955523,0,0,0.26955523,535.82851,293.63801)"
         style="fill:#000000">
        <path
           transform="translate(-1262.7652,-179.72282)"
           d="m 322.64697,16.000003 c -25.7,0 -46.5,27.02 -46.5,60.359999 0,20.050001 7.7,38.849998 20.6,50.049998 5.6,81.2 -4.7,152.3 -53.6,160.1 -60.2,6.2 -73.2,-68.2 -84.6,-139 8.9,-15.7 9.2,-37.5 0.6,-57.299997 -13.4,-30.79 -43.6,-47.33 -67.560015,-36.92 -23.92,10.4 -32.47,43.72 -19.11,74.519997 9.44,21.7 27.770015,37.1 47.070015,39.6 33.9,57.6 71.8,152.4 51,180.2 -11.5,15.2 -32.7,10.4 -55.6,-4 3.7,-16.3 -4.5,-34.6 -20.810015,-46.7 -22.74,-16.9 -53.8,-16.5 -69.39,0.8 -15.599999,17.3 -9.77,45 13,61.9 17.78,13.1 41.33,16.1 58.44,7.4 67.860015,32.9 121.860015,99.5 175.560015,90.6 76.2,-12.6 76.5,-119.3 148.29999,-149.9 13.7,9.1 33.5,8.3 49.7,-2.1 21.2,-13.7 29.1,-39.2 17.7,-56.9 -11.4,-17.8 -37.9,-21.1 -59.2,-7.4 -15.9,10.3 -24.89999,27.8 -22.49999,43.9 -29.9,22.4 -68.5,39.7 -88.7,27.3 -16.2,-9.9 1.8,-122.3 19,-178.4 19.6,-7.7 33.1,-31.1 33.1,-57.749998 0,-33.339999 -20.8,-60.369999 -46.5,-60.359999 z"
           fill="#000000"
           fill-opacity="1"
           id="path281"
           inkscape:export-xdpi="96"
           inkscape:export-ydpi="96"
           style="fill:#000000"
           mask="url(#mask-powermask-path-effect186)"
           inkscape:path-effect="#path-effect186"
           inkscape:original-d="m 322.64697,16.000003 c -25.7,0 -46.5,27.02 -46.5,60.359999 0,20.050001 7.7,38.849998 20.6,50.049998 5.6,81.2 -4.7,152.3 -53.6,160.1 -60.2,6.2 -73.2,-68.2 -84.6,-139 8.9,-15.7 9.2,-37.5 0.6,-57.299997 -13.4,-30.79 -43.6,-47.33 -67.560015,-36.92 -23.92,10.4 -32.47,43.72 -19.11,74.519997 9.44,21.7 27.770015,37.1 47.070015,39.6 33.9,57.6 71.8,152.4 51,180.2 -11.5,15.2 -32.7,10.4 -55.6,-4 3.7,-16.3 -4.5,-34.6 -20.810015,-46.7 -22.74,-16.9 -53.8,-16.5 -69.39,0.8 -15.599999,17.3 -9.77,45 13,61.9 17.78,13.1 41.33,16.1 58.44,7.4 67.860015,32.9 121.860015,99.5 175.560015,90.6 76.2,-12.6 76.5,-119.3 148.29999,-149.9 13.7,9.1 33.5,8.3 49.7,-2.1 21.2,-13.7 29.1,-39.2 17.7,-56.9 -11.4,-17.8 -37.9,-21.1 -59.2,-7.4 -15.9,10.3 -24.89999,27.8 -22.49999,43.9 -29.9,22.4 -68.5,39.7 -88.7,27.3 -16.2,-9.9 1.8,-122.3 19,-178.4 19.6,-7.7 33.1,-31.1 33.1,-57.749998 0,-33.339999 -20.8,-60.369999 -46.5,-60.359999 z" />
        <path
           transform="translate(-1262.7652,-179.72282)"
           id="path283"
           style="color:#000000;font-style:normal;font-variant:normal;font-weight:normal;font-stretch:normal;font-size:medium;line-height:normal;font-family:sans-serif;font-variant-ligatures:normal;font-variant-position:normal;font-variant-caps:normal;font-variant-numeric:normal;font-variant-alternates:normal;font-variant-east-asian:normal;font-feature-settings:normal;font-variation-settings:normal;text-indent:0;text-align:start;text-decoration:none;text-decoration-line:none;text-decoration-style:solid;text-decoration-color:#000000;letter-spacing:normal;word-spacing:normal;text-transform:none;writing-mode:lr-tb;direction:ltr;text-orientation:mixed;dominant-baseline:auto;baseline-shift:baseline;text-anchor:start;white-space:normal;shape-padding:0;shape-margin:0;inline-size:0;clip-rule:nonzero;display:inline;overflow:visible;visibility:visible;isolation:auto;mix-blend-mode:normal;color-interpolation:sRGB;color-interpolation-filters:linearRGB;solid-color:#000000;solid-opacity:1;vector-effect:none;fill:#000000;fill-opacity:1;fill-rule:nonzero;stroke:none;stroke-width:8;stroke-linecap:butt;stroke-linejoin:miter;stroke-miterlimit:4;stroke-dasharray:none;stroke-dashoffset:0;stroke-opacity:1;color-rendering:auto;image-rendering:auto;shape-rendering:auto;text-rendering:auto;enable-background:accumulate;stop-color:#000000"
           d="m 116.99609,106.71289 -3.54101,7.17383 c 111.35491,54.9506 222.7115,109.90096 334.0664,164.85156 l 3.53907,-7.17383 C 339.70565,216.61385 228.351,161.66349 116.99609,106.71289 Z M 448.72266,271.19336 C 321.0861,289.51022 193.44907,307.82572 65.8125,326.14258 l 1.136719,7.91992 C 194.58579,315.74564 322.22282,297.42819 449.85938,279.11133 Z"
           mask="url(#mask-powermask-path-effect161)"
           inkscape:path-effect="#path-effect161"
           inkscape:original-d="m 116.99609,106.71289 -3.54101,7.17383 c 111.35491,54.9506 222.7115,109.90096 334.0664,164.85156 l 3.53907,-7.17383 C 339.70565,216.61385 228.351,161.66349 116.99609,106.71289 Z M 448.72266,271.19336 C 321.0861,289.51022 193.44907,307.82572 65.8125,326.14258 l 1.136719,7.91992 C 194.58579,315.74564 322.22282,297.42819 449.85938,279.11133 Z" />
      </g>
    </mask>
    <filter
       id="mask-powermask-path-effect289_inverse"
       inkscape:label="filtermask-powermask-path-effect289"
       style="color-interpolation-filters:sRGB"
       height="100"
       width="100"
       x="-50"
       y="-50">
      <feColorMatrix
         id="mask-powermask-path-effect289_primitive1"
         values="1"
         type="saturate"
         result="fbSourceGraphic" />
      <feColorMatrix
         id="mask-powermask-path-effect289_primitive2"
         values="-1 0 0 0 1 0 -1 0 0 1 0 0 -1 0 1 0 0 0 1 0 "
         in="fbSourceGraphic" />
    </filter>
  </defs>
  <sodipodi:namedview
     inkscape:current-layer="svg14"
     inkscape:window-maximized="0"
     inkscape:window-y="23"
     inkscape:window-x="0"
     inkscape:cy="406.01466"
     inkscape:cx="713.76281"
     inkscape:zoom="0.51914065"
     fit-margin-bottom="16"
     fit-margin-right="16"
     fit-margin-left="16"
     fit-margin-top="16"
     lock-margins="true"
     showgrid="false"
     id="namedview16"
     inkscape:window-height="773"
     inkscape:window-width="1440"
     inkscape:pageshadow="2"
     inkscape:pageopacity="0"
     guidetolerance="10"
     gridtolerance="10"
     objecttolerance="10"
     borderopacity="1"
     bordercolor="#666666"
     pagecolor="#ffffff"
     inkscape:document-rotation="0" />
  <g
     transform="translate(-3.156,-6)"
     id="g12"
     class=""
     mask="url(#mask-powermask-path-effect289)"
     inkscape:path-effect="#path-effect289">
    <path
       id="path10"
       fill-opacity="1"
       fill="#000000"
       d="m 176,22 v 86 c 80,32 80,32 160,0 V 22 L 288,70 256,22 224,70 Z m 159.543,108.31 c -4.742,0.195 -9.564,1.488 -14.205,4.167 -38.934,22.48 -89.77,21.953 -127.79,0.002 -6.09,-3.516 -12.284,-4.611 -18.144,-3.893 a 46.38,46.38 0 0 1 9.438,28.09 c 0,23.15 -17.037,42.83 -39.176,45.096 -12.775,14.92 -21.554,31.806 -24.387,49.982 44.73,-23.79 90.948,-35.572 137.065,-35.508 46.15,0.064 92.197,11.986 136.56,35.62 -2.69,-18.15 -11.217,-35.044 -23.795,-49.92 -0.585,0.025 -1.17,0.048 -1.76,0.048 -24.18,0 -43.447,-20.7 -43.447,-45.318 0,-10.64 3.601,-20.542 9.641,-28.363 z m -194.148,3.215 -0.002,0.002 c -12.67,0 -23.278,10.85 -23.278,25.15 0,14.298 10.608,25.147 23.278,25.147 12.67,0 23.277,-10.85 23.277,-25.148 0,-14.298 -10.607,-25.15 -23.276,-25.15 z m 227.953,0 v 0.002 c -12.67,0 -23.276,10.85 -23.276,25.15 0,14.298 10.607,25.147 23.276,25.147 12.67,0 23.277,-10.85 23.277,-25.148 0,-14.298 -10.608,-25.15 -23.277,-25.15 z m 68.396,93.375 c -9.361,-0.13 -18.96,1.646 -28.676,4.237 6.926,19.457 8.569,40.725 2.694,62.656 -4.26,15.896 0.934,37.475 11.7,54.758 l 4.69,7.53 -7.02,5.43 c -19.764,15.28 -36.439,25.107 -46.103,35.264 -9.664,10.158 -13.888,19.59 -10.916,40.875 0.484,12.745 6.068,17.054 13.668,24.97 19.876,-14.55 36.01,-23.888 68.344,-4.095 -6.738,-18.804 15.937,-29.76 46.719,-29.779 -36.91,-15.88 -64.98,-25.62 -86.438,-30.377 67.492,-72.188 97.182,-127.96 66,-159.187 C 461.421,230.388 449.78,227.068 437.744,226.9 Z M 73.67,227.018 c -12.65,0.034 -24.768,3.161 -34.076,12.166 -31.182,31.227 -1.492,87 66,159.187 -21.456,4.756 -49.528,14.497 -86.438,30.375 30.782,0.02 53.457,10.978 46.719,29.781 32.332,-19.792 48.469,-10.455 68.344,4.094 6.233,-8.55 16.31,-14.826 17.724,-24.969 2.972,-21.283 -1.25,-30.717 -10.914,-40.875 -9.664,-10.157 -26.34,-19.982 -46.105,-35.263 l -7.02,-5.428 4.692,-7.53 c 10.73,-17.227 15.857,-39.232 11.699,-54.76 -5.782,-21.571 -4.184,-42.44 2.537,-61.56 -10.425,-2.871 -22,-5.249 -33.162,-5.218 z m 184.67,9.539 c -46.096,-0.065 -92.3,12.827 -137.572,38.845 a 87.269,87.269 0 0 0 2.494,13.31 v 0.003 c 5.453,20.354 0.592,42.93 -9.485,62.297 15.89,11.634 30.344,20.524 41.479,32.228 10.36,10.89 16.795,25.133 16.955,43.713 -1.096,16.308 -9.158,39.273 -22.348,59.244 24.59,-14.237 42.135,-15.333 45.291,3.492 14.097,-17.783 25.698,-20.386 38.985,-8.035 -3.745,-31.452 -11.117,-52.887 -17.258,-65.097 -14.896,-36.567 -42.816,-61.484 -73.742,-83.424 l 11.359,-16.014 c 38.788,27.517 76.799,62.664 89.125,119.567 9.628,0.705 19.25,0.65 28.85,-0.16 12.362,-56.81 50.333,-91.919 89.084,-119.409 l 11.361,16.016 c -31.19,22.127 -59.334,47.28 -74.13,84.363 -6.046,12.357 -13.14,33.493 -16.794,64.158 13.29,-12.35 24.891,-9.747 38.988,8.036 3.153,-18.825 20.697,-17.73 45.288,-3.493 -13.51,-20.455 -21.645,-44.058 -22.42,-60.424 0.415,-18.01 6.809,-31.872 16.949,-42.533 11.135,-11.705 25.586,-20.595 41.474,-32.23 -10.064,-19.29 -14.99,-41.737 -9.48,-62.303 a 88.607,88.607 0 0 0 2.51,-13.266 c -44.85,-25.79 -90.85,-38.818 -136.961,-38.884 z"
       inkscape:original-d="m 176,22 v 86 c 80,32 80,32 160,0 V 22 L 288,70 256,22 224,70 Z m 159.543,108.31 c -4.742,0.195 -9.564,1.488 -14.205,4.167 -38.934,22.48 -89.77,21.953 -127.79,0.002 -6.09,-3.516 -12.284,-4.611 -18.144,-3.893 a 46.38,46.38 0 0 1 9.438,28.09 c 0,23.15 -17.037,42.83 -39.176,45.096 -12.775,14.92 -21.554,31.806 -24.387,49.982 44.73,-23.79 90.948,-35.572 137.065,-35.508 46.15,0.064 92.197,11.986 136.56,35.62 -2.69,-18.15 -11.217,-35.044 -23.795,-49.92 -0.585,0.025 -1.17,0.048 -1.76,0.048 -24.18,0 -43.447,-20.7 -43.447,-45.318 0,-10.64 3.601,-20.542 9.641,-28.363 z m -194.148,3.215 -0.002,0.002 c -12.67,0 -23.278,10.85 -23.278,25.15 0,14.298 10.608,25.147 23.278,25.147 12.67,0 23.277,-10.85 23.277,-25.148 0,-14.298 -10.607,-25.15 -23.276,-25.15 z m 227.953,0 v 0.002 c -12.67,0 -23.276,10.85 -23.276,25.15 0,14.298 10.607,25.147 23.276,25.147 12.67,0 23.277,-10.85 23.277,-25.148 0,-14.298 -10.608,-25.15 -23.277,-25.15 z m 68.396,93.375 c -9.361,-0.13 -18.96,1.646 -28.676,4.237 6.926,19.457 8.569,40.725 2.694,62.656 -4.26,15.896 0.934,37.475 11.7,54.758 l 4.69,7.53 -7.02,5.43 c -19.764,15.28 -36.439,25.107 -46.103,35.264 -9.664,10.158 -13.888,19.59 -10.916,40.875 0.484,12.745 6.068,17.054 13.668,24.97 19.876,-14.55 36.01,-23.888 68.344,-4.095 -6.738,-18.804 15.937,-29.76 46.719,-29.779 -36.91,-15.88 -64.98,-25.62 -86.438,-30.377 67.492,-72.188 97.182,-127.96 66,-159.187 C 461.421,230.388 449.78,227.068 437.744,226.9 Z M 73.67,227.018 c -12.65,0.034 -24.768,3.161 -34.076,12.166 -31.182,31.227 -1.492,87 66,159.187 -21.456,4.756 -49.528,14.497 -86.438,30.375 30.782,0.02 53.457,10.978 46.719,29.781 32.332,-19.792 48.469,-10.455 68.344,4.094 6.233,-8.55 16.31,-14.826 17.724,-24.969 2.972,-21.283 -1.25,-30.717 -10.914,-40.875 -9.664,-10.157 -26.34,-19.982 -46.105,-35.263 l -7.02,-5.428 4.692,-7.53 c 10.73,-17.227 15.857,-39.232 11.699,-54.76 -5.782,-21.571 -4.184,-42.44 2.537,-61.56 -10.425,-2.871 -22,-5.249 -33.162,-5.218 z m 184.67,9.539 c -46.096,-0.065 -92.3,12.827 -137.572,38.845 a 87.269,87.269 0 0 0 2.494,13.31 v 0.003 c 5.453,20.354 0.592,42.93 -9.485,62.297 15.89,11.634 30.344,20.524 41.479,32.228 10.36,10.89 16.795,25.133 16.955,43.713 -1.096,16.308 -9.158,39.273 -22.348,59.244 24.59,-14.237 42.135,-15.333 45.291,3.492 14.097,-17.783 25.698,-20.386 38.985,-8.035 -3.745,-31.452 -11.117,-52.887 -17.258,-65.097 -14.896,-36.567 -42.816,-61.484 -73.742,-83.424 l 11.359,-16.014 c 38.788,27.517 76.799,62.664 89.125,119.567 9.628,0.705 19.25,0.65 28.85,-0.16 12.362,-56.81 50.333,-91.919 89.084,-119.409 l 11.361,16.016 c -31.19,22.127 -59.334,47.28 -74.13,84.363 -6.046,12.357 -13.14,33.493 -16.794,64.158 13.29,-12.35 24.891,-9.747 38.988,8.036 3.153,-18.825 20.697,-17.73 45.288,-3.493 -13.51,-20.455 -21.645,-44.058 -22.42,-60.424 0.415,-18.01 6.809,-31.872 16.949,-42.533 11.135,-11.705 25.586,-20.595 41.474,-32.23 -10.064,-19.29 -14.99,-41.737 -9.48,-62.303 a 88.607,88.607 0 0 0 2.51,-13.266 c -44.85,-25.79 -90.85,-38.818 -136.961,-38.884 z" />
  </g>
</svg>
