<?xml version="1.0" encoding="UTF-8" standalone="no"?>
<svg
   xmlns:dc="http://purl.org/dc/elements/1.1/"
   xmlns:cc="http://creativecommons.org/ns#"
   xmlns:rdf="http://www.w3.org/1999/02/22-rdf-syntax-ns#"
   xmlns:svg="http://www.w3.org/2000/svg"
   xmlns="http://www.w3.org/2000/svg"
   xmlns:sodipodi="http://sodipodi.sourceforge.net/DTD/sodipodi-0.dtd"
   xmlns:inkscape="http://www.inkscape.org/namespaces/inkscape"
   viewBox="0 0 1623.4526 499.69"
   version="1.1"
   id="svg14"
   sodipodi:docname="CRoG-king-horizontal-paths.svg"
   width="1623.4526"
   height="499.69"
   inkscape:export-filename="/Users/scott/dev/chemical-roles/art/CRoG-king-horizontal-1024.png"
   inkscape:export-xdpi="196.72998"
   inkscape:export-ydpi="196.72998"
   inkscape:version="1.0 (4035a4f, 2020-05-01)">
  <title
     id="title295">The CRoG King</title>
  <g
     style="font-size:647.918px;line-height:1.25;font-family:Trattatello;-inkscape-font-specification:Trattatello;letter-spacing:-12.1484px;stroke-width:1.21484"
     id="text1595"
     aria-label="CRoG">
    <path
       id="path176"
       style="font-size:647.918px;stroke-width:1.21484"
       d="m 716.20596,91.051625 q 9.71877,0 14.25419,4.535426 5.18335,3.887508 7.77502,10.366689 2.59167,6.47918 2.59167,13.60628 0.64792,6.47918 0.64792,11.0146 v 12.31045 q -3.88751,14.90211 -13.60628,27.21255 -9.07085,12.31045 -23.97297,12.31045 -9.71877,0 -20.73337,-5.83127 -11.01461,-6.47918 -24.62089,-6.47918 -14.25419,0 -27.86047,10.36669 -13.60628,9.71877 -24.62089,23.32505 -11.01461,13.60628 -18.1417,27.86048 -6.47918,13.60628 -6.47918,21.38129 v 18.14171 24.62088 q 0,7.77502 2.59167,26.56464 2.59167,18.78962 8.42293,38.87508 5.83127,19.43754 14.90212,34.98758 9.71877,14.90211 23.97296,14.90211 l 12.95837,-5.18334 q 14.90211,0 27.86047,-3.23959 12.95836,-3.88751 23.97297,-14.90212 14.25419,-16.84587 27.21255,-26.56464 3.88751,-3.23959 9.07086,-4.53542 5.18334,-1.29584 9.07085,-1.29584 1.29584,1.29584 3.23959,3.88751 3.88751,5.18334 3.88751,9.07085 0,14.2542 -10.36669,33.04382 -10.36669,18.14171 -25.2688,34.98757 -14.2542,16.19796 -29.80423,27.86048 -14.90212,11.66252 -24.62089,11.66252 h -5.18334 q -9.07085,1.94376 -16.84587,3.88751 -7.1271,1.29584 -13.60628,2.59168 -6.47918,1.29583 -9.07085,1.29583 -5.18335,0 -14.90212,-4.53543 -9.07085,-4.53542 -19.43754,-11.0146 -10.36669,-5.83126 -18.78962,-12.31044 -8.42293,-7.1271 -10.36669,-12.31045 -2.59167,-1.94375 -7.1271,-12.31044 -3.88751,-11.01461 -8.42293,-23.97297 -3.88751,-13.60628 -7.1271,-26.56464 -2.59167,-12.95836 -2.59167,-19.43754 v -20.08546 q -1.94376,-3.8875 -3.88751,-7.12709 -3.23959,-6.47918 -3.23959,-11.01461 1.29584,-7.77502 3.23959,-14.90211 1.29584,-5.83127 2.59167,-12.31045 1.29584,-6.47918 1.29584,-10.36669 v -14.25419 q 0,-1.94376 -1.29584,-4.53543 -1.29583,-3.23959 -2.59167,-6.47918 -1.94375,-3.23959 -3.23959,-7.1271 l 7.1271,-20.08546 v -12.31044 q 5.18334,-11.01461 9.71877,-20.08546 3.88751,-7.77501 7.77501,-14.90211 4.53543,-7.1271 7.77502,-10.36669 1.94376,-12.31044 9.71877,-22.02921 7.77502,-9.71877 18.14171,-18.14171 11.0146,-8.42293 23.32505,-15.55003 12.31044,-7.1271 24.62088,-14.2542 7.1271,-1.29583 14.2542,-3.23959 5.18334,-1.29583 10.36669,-2.591671 5.83126,-1.295836 7.77501,-1.295836 h 12.95836 24.62089 z" />
    <path
       id="path178"
       style="font-size:647.918px;stroke-width:1.21484"
       d="m 1001.2393,91.051625 q 12.9584,0 23.973,10.366685 11.6625,9.71877 20.7334,18.14171 5.1833,15.55003 16.1979,23.32505 3.8875,4.53542 7.775,9.71877 3.8875,5.18334 5.1834,12.31044 2.5917,0 5.1833,5.83126 2.5917,5.18335 4.5355,12.95836 1.9437,7.1271 3.2395,13.60628 1.2959,6.47918 1.2959,8.42294 0,9.07085 -3.2396,20.08546 -3.2396,11.0146 -8.4229,22.02921 -4.5355,11.0146 -10.3667,21.38129 -5.1834,9.71877 -9.0709,16.19795 -2.5917,4.53543 -7.1271,7.1271 -3.8875,2.59167 -7.775,5.18335 -3.8875,1.94375 -7.1271,5.83126 -2.5917,3.88751 -2.5917,10.36669 0,7.1271 3.8875,18.78962 3.8875,11.66252 9.7188,23.32505 5.8313,11.66252 11.6625,20.73338 6.4792,9.07085 10.3667,11.0146 7.775,5.18335 13.6063,12.95836 6.4792,7.77502 12.9584,15.55004 7.1271,7.77501 14.9021,14.25419 7.775,5.83126 18.1417,7.77502 3.8875,1.29584 12.3104,5.18334 8.423,3.23959 12.9584,7.77502 3.8875,3.88751 3.8875,5.83126 0.6479,1.29584 -0.6479,6.47918 -1.9438,7.1271 -9.7188,10.36669 -7.1271,3.23959 -16.1979,3.88751 -8.423,1.29583 -15.5501,0.64792 -7.1271,0 -8.4229,-0.64792 -4.5354,-3.88751 -12.3105,-3.88751 -7.1271,0 -11.6625,-1.29584 -17.4938,-10.36668 -24.6209,-16.84586 -7.1271,-6.47918 -16.8458,-12.31045 -3.8875,-1.94375 -9.7188,-6.47918 -5.8313,-5.18334 -12.9584,-11.66252 -6.4791,-6.47918 -13.6062,-13.60628 -6.47923,-7.1271 -12.31049,-12.95836 -7.77502,-9.71877 -13.60628,-18.78962 -5.18334,-9.07086 -9.71877,-16.84587 -3.88751,-8.42294 -7.77502,-14.90212 -3.8875,-7.1271 -8.42293,-11.0146 -9.07085,-5.18335 -13.60628,-9.71877 -3.88751,-4.53543 -12.95836,-4.53543 -7.77502,0 -12.31044,5.18334 -3.88751,4.53543 -6.47918,11.01461 -1.94376,6.47918 -2.59167,13.60628 -0.64792,7.1271 -0.64792,11.66252 l 7.1271,30.45215 v 12.95836 q 0,15.55003 9.71877,23.32505 10.36669,7.77502 22.02921,12.95836 11.66252,5.18335 21.38129,10.36669 10.36669,4.53543 10.36669,14.2542 0,4.53542 -4.53542,7.77501 -4.53543,3.23959 -8.42294,3.23959 H 939.68711 L 903.4037,474.6191 h -14.25419 -30.45215 -11.01461 -25.2688 q -1.94375,0 -12.95836,-1.29584 -10.36669,-0.64792 -22.67713,-3.23959 -11.66253,-1.94375 -21.3813,-6.47918 -9.71877,-3.88751 -9.71877,-11.0146 0,-1.94376 1.94376,-3.88751 1.94375,-1.94376 4.53542,-3.88751 2.59168,-2.59167 6.47918,-4.53543 1.94376,0 5.83127,0.64792 3.8875,0.64792 7.77501,1.29584 4.53543,0.64792 9.71877,1.29583 h 12.95836 q 12.95836,0 21.3813,-7.1271 9.07085,-7.77501 9.07085,-16.19795 V 352.16259 247.19987 l 5.18334,-46.6501 q -1.94375,-6.47918 -2.59167,-15.55003 -0.64792,-9.07085 -2.59167,-16.84587 -1.29584,-8.42293 -5.83126,-14.90211 -3.88751,-6.47918 -12.31044,-8.42294 H 791.9618 q -7.1271,0 -14.25419,-1.29583 -7.1271,-1.29584 -13.60628,-4.53543 -5.83126,-3.23959 -9.71877,-9.07085 -3.88751,-5.83127 -3.88751,-15.55004 0,-1.94375 2.59167,-3.8875 3.23959,-2.59168 6.47918,-4.53543 3.88751,-2.59167 9.07085,-4.53543 L 878.1349,96.234969 h 66.73556 q 1.94375,0 7.1271,-0.647918 5.18334,-0.647918 10.36668,-1.943754 6.47918,-1.295836 13.60628,-2.591672 z m -61.55219,66.087635 q -2.59167,0.64792 -5.83126,1.29584 -3.23959,1.29584 -7.1271,2.59167 -3.88751,0.64792 -8.42293,3.88751 -4.53543,0 -9.07085,4.53543 -3.88751,3.8875 -3.88751,12.95836 v 11.0146 25.26881 11.0146 q 0,5.18335 -2.59167,9.71877 -2.59168,3.88751 -2.59168,7.77502 l 2.59168,1.29584 q 1.29583,1.29583 1.94375,2.59167 0.64792,0.64792 0.64792,3.88751 -1.94376,6.47918 1.29583,12.31044 3.23959,5.18334 9.07086,9.71877 5.83126,3.88751 12.31044,6.47918 7.1271,1.94375 11.66252,1.94375 5.83127,-2.59167 11.66253,-5.18334 5.18334,-1.94375 9.07085,-3.88751 4.53543,-1.94375 7.77502,-1.94375 l 12.95836,5.18334 q 8.42293,0 14.25419,-6.47918 5.83124,-7.1271 9.07084,-15.55003 3.8875,-9.07085 5.8313,-16.84587 1.9437,-8.42293 3.2396,-11.01461 l -3.8875,-18.1417 q 0,-4.53543 -1.2959,-8.42294 -0.6479,-4.53542 -5.8312,-9.71877 0,-3.8875 -1.2959,-11.66252 -0.6479,-7.77502 -5.83124,-11.66253 -1.94375,0 -9.71877,-1.94375 -7.12709,-1.94375 -16.19795,-4.53543 -8.42293,-2.59167 -17.49378,-4.53542 -8.42294,-1.94376 -12.31045,-1.94376 z" />
    <path
       id="path180"
       style="font-size:526.433px;stroke-width:1.21484"
       d="m 1201.8712,168.59951 q 7.37,0 17.8987,0.52644 11.0551,0.52643 18.4251,3.68503 7.8965,0 10.0023,6.31719 2.6321,6.3172 6.3172,14.21369 2.1057,2.10574 4.7379,5.79077 3.1586,3.68503 5.2643,7.89649 2.6322,3.68503 4.2115,7.8965 1.5793,4.21146 1.5793,7.37006 l -4.2115,46.85253 q 0,14.74013 -6.3172,32.63885 -6.3172,17.89872 -18.4252,32.11241 -4.2114,4.21147 -6.3172,9.4758 -1.5793,4.73789 -3.685,10.00222 -1.5793,5.26433 -4.2115,11.05509 -2.1057,5.26433 -6.3171,10.52866 -3.1586,3.68504 -7.3701,8.94936 -3.685,5.26433 -8.4229,11.0551 -4.2115,5.26433 -9.4758,10.00222 -4.7379,4.21147 -10.0023,6.3172 -7.8965,4.21146 -13.1608,7.37006 -5.2643,3.1586 -9.4758,5.26433 -4.2114,2.10573 -8.9493,2.63217 -4.2115,1.05286 -9.4758,1.05286 -7.8965,0 -14.7402,-3.68503 -6.8436,-3.68503 -12.1079,-9.47579 -4.7379,-6.3172 -7.8965,-13.68726 -3.1586,-7.89649 -3.1586,-15.79299 v -35.27101 q 0,-3.1586 -2.1057,-5.79076 -2.1058,-2.63217 -2.1058,-14.74013 -0.5264,-15.26655 7.3701,-36.8503 7.8965,-21.58376 18.4251,-42.11464 11.0551,-21.05732 21.5838,-36.85031 11.0551,-16.31942 16.8459,-20.00446 5.7907,-3.68503 9.4757,-7.89649 4.2115,-4.7379 7.8965,-8.42293 3.6851,-3.68503 7.3701,-5.79076 4.2115,-2.63217 10.5287,-2.63217 z m 2.6321,60.01336 q -8.4229,0 -17.3723,7.37007 -8.4229,6.84363 -15.7929,16.31942 -7.3701,8.94936 -13.1609,18.42515 -5.7907,8.94936 -7.8965,13.16083 l -5.2643,20.00445 q -2.1057,7.37006 -3.685,14.21369 -1.0529,6.84363 -1.0529,8.42293 v 10.00223 q 2.1057,1.5793 3.685,6.31719 1.5793,4.7379 3.6851,9.4758 2.6321,4.73789 5.7907,8.42292 3.1586,3.68503 8.9494,3.68503 10.5287,-4.73789 19.478,-9.47579 7.3701,-4.21146 14.2137,-8.94936 7.3701,-4.7379 10.0022,-9.47579 3.1586,-7.37007 6.8437,-17.37229 4.2114,-10.00223 7.8965,-18.95159 -1.0529,-4.21146 2.1057,-8.42293 3.685,-4.21146 3.685,-7.89649 v -14.74013 q 0,-2.63216 -1.5793,-8.94936 -1.0529,-6.84362 -4.2114,-13.68725 -2.6322,-7.37007 -6.8437,-12.6344 -4.2114,-5.26433 -9.4758,-5.26433 z" />
    <path
       id="path182"
       style="font-size:647.918px;stroke-width:1.21484"
       d="m 1523.2233,98.178723 h 12.3105 18.1417 q 13.6063,0 22.6771,11.662527 9.7188,11.0146 14.9021,25.2688 5.8313,14.2542 8.423,27.21256 2.5916,12.31044 2.5916,14.90211 0,5.18335 0.648,8.42294 0.6479,2.59167 1.9437,5.18334 1.2958,2.59167 2.5917,4.53543 0,1.94375 -0.6479,4.53542 -1.2959,4.53543 -4.5355,7.77502 0,4.53543 -0.6479,9.07085 -0.6479,3.88751 -4.5354,3.88751 -3.2396,0 -10.3667,-7.1271 -7.1271,-7.77501 -14.9021,-16.84587 -9.0709,-11.0146 -20.0855,-24.62088 -7.1271,-3.88751 -19.4375,-8.42294 -11.6625,-4.53542 -22.6771,-8.42293 -13.6063,-4.53543 -27.8605,-8.42293 -20.7334,0 -41.4668,7.77501 -20.0854,7.77502 -36.9313,22.67713 -16.1979,14.90212 -27.8605,36.28341 -11.0146,21.3813 -12.9583,48.59385 0,12.95837 -2.5917,20.73338 -2.5917,7.77502 -2.5917,16.84587 0,9.07085 0.6479,15.55003 0.648,5.83127 4.5355,14.90212 4.5354,13.60628 12.9583,29.15631 8.423,15.55003 19.4376,29.15631 11.6625,12.95836 25.9167,22.02921 14.2542,8.42294 30.4521,8.42294 l 23.3251,-7.77502 q 9.0708,0 19.4375,-6.47918 11.0146,-7.1271 11.0146,-20.08546 v -12.95836 q -1.2958,-7.77501 -3.2396,-15.55003 -1.9437,-8.42294 -5.8312,-16.84587 -5.1834,-9.07085 -12.9584,-18.1417 -7.1271,-9.71877 -12.3104,-12.31045 -9.0709,-3.23959 -9.0709,-9.07085 0,-2.59167 2.5917,-3.88751 3.2396,-1.94375 7.1271,-2.59167 4.5354,-0.64792 10.3667,-0.64792 h 28.5084 31.1 12.3105 q 4.5354,0 7.1271,-0.64792 3.2396,-0.64791 6.4792,-1.29583 3.2396,-1.29584 8.4229,-1.94376 5.1833,-1.29583 14.2542,-1.29583 4.5354,1.29583 8.4229,3.23959 3.2396,1.29583 5.8313,3.88751 3.2396,2.59167 3.2396,5.18334 0,3.88751 -3.2396,12.95836 -3.2396,8.42294 -7.1271,8.42294 h -7.1271 q -13.6063,0 -22.6771,10.36668 -8.423,10.36669 -8.423,18.78963 v 18.1417 19.43754 q 0,8.42294 -2.5916,12.95836 -2.5917,4.53543 -2.5917,14.2542 1.2958,5.18334 1.9437,10.36669 0.648,4.53542 0,10.36669 0,5.18334 -1.9437,9.71877 0,4.53542 -3.2396,7.77501 -2.5917,2.59168 -5.8313,5.18335 -3.8875,2.59167 -9.0708,5.18334 l -43.4105,7.1271 h -10.3667 q -2.5917,0 -8.423,-1.29584 -5.1833,-0.64791 -11.6625,-2.59167 -5.8312,-1.29583 -12.9583,-2.59167 -6.4792,-0.64792 -12.3105,-0.64792 h -17.4938 q -3.2396,0 -9.0708,-1.29583 -5.8313,-1.29584 -11.0146,-3.88751 -9.7188,-3.23959 -19.4376,-4.53543 -9.7187,-1.29583 -14.9021,-1.29583 -1.9437,-2.59168 -6.4792,-3.88751 -3.8875,-1.94376 -9.0708,-3.88751 -4.5354,-1.94375 -9.0709,-4.53543 -3.8875,-2.59167 -5.8312,-7.1271 -5.1834,-1.94375 -13.6063,-12.95836 -7.775,-11.66252 -15.55,-25.91672 -7.7751,-14.25419 -13.6063,-28.50839 -5.8313,-14.90211 -5.8313,-24.62089 v -11.0146 q 0,-5.18335 -3.8875,-12.31044 -3.2396,-7.77502 -3.2396,-12.95837 v -25.2688 -17.49379 q 3.8875,-10.36668 7.1271,-19.43754 2.5917,-7.77501 4.5354,-15.55003 2.5917,-8.42293 2.5917,-13.60628 l 5.1834,-11.0146 q 0,-14.2542 11.0146,-30.45215 11.0146,-16.19795 25.9167,-30.45215 15.55,-14.2542 31.748,-23.32505 16.8458,-9.71877 28.5084,-9.71877 5.1833,-0.64792 9.7187,-1.29583 3.8875,-0.64792 7.7751,-1.29584 3.8875,-0.64792 6.4791,-0.64792 h 7.1271 q 9.7188,0 13.6063,-0.64792 4.5354,-1.29583 8.4229,-2.59167 3.8876,-1.94375 9.0709,-2.591671 5.8313,-1.295836 17.4938,-1.295836 h 25.2688 z" />
  </g>
  <metadata
     id="metadata20">
    <rdf:RDF>
      <cc:Work
         rdf:about="">
        <dc:format>image/svg+xml</dc:format>
        <dc:type
           rdf:resource="http://purl.org/dc/dcmitype/StillImage" />
        <dc:title>The CRoG King</dc:title>
        <dc:date>2020-07-16</dc:date>
        <dc:creator>
          <cc:Agent>
            <dc:title>Scott Colby</dc:title>
          </cc:Agent>
        </dc:creator>
        <cc:license
           rdf:resource="http://creativecommons.org/licenses/by/3.0/" />
      </cc:Work>
    </rdf:RDF>
  </metadata>
  <defs
     id="defs18">
    <inkscape:path-effect
       background_color="#ffffffff"
       background="true"
       hide_mask="false"
       invert="false"
       uri="#mask-powermask-path-effect289"
       lpeversion="1"
       is_visible="true"
       id="path-effect289"
       effect="powermask" />
    <inkscape:path-effect
       background_color="#ffffffff"
       background="true"
       hide_mask="false"
       invert="false"
       uri="#mask-powermask-path-effect186"
       lpeversion="1"
       is_visible="true"
       id="path-effect186"
       effect="powermask" />
    <inkscape:path-effect
       background_color="#ffffffff"
       background="true"
       hide_mask="false"
       invert="false"
       uri="#mask-powermask-path-effect161"
       lpeversion="1"
       is_visible="true"
       id="path-effect161"
       effect="powermask" />
    <mask
       id="mask-powermask-path-effect161"
       maskUnits="userSpaceOnUse">
      <path
         d="M 64.8125,105.71289 H 452.06055 V 335.0625 H 64.8125 Z"
         style="fill:#ffffff;fill-opacity:1"
         id="mask-powermask-path-effect161_box" />
      <path
         style=""
         d="m 322.64697,16.000003 c -25.7,0 -46.5,27.02 -46.5,60.359999 0,20.050001 7.7,38.849998 20.6,50.049998 5.6,81.2 -4.7,152.3 -53.6,160.1 -60.2,6.2 -73.2,-68.2 -84.6,-139 8.9,-15.7 9.2,-37.5 0.6,-57.299997 -13.4,-30.79 -43.6,-47.33 -67.560015,-36.92 -23.92,10.4 -32.47,43.72 -19.11,74.519997 9.44,21.7 27.770015,37.1 47.070015,39.6 33.9,57.6 71.8,152.4 51,180.2 -11.5,15.2 -32.7,10.4 -55.6,-4 3.7,-16.3 -4.5,-34.6 -20.810015,-46.7 -22.74,-16.9 -53.8,-16.5 -69.39,0.8 -15.599999,17.3 -9.77,45 13,61.9 17.78,13.1 41.33,16.1 58.44,7.4 67.860015,32.9 121.860015,99.5 175.560015,90.6 76.2,-12.6 76.5,-119.3 148.29999,-149.9 13.7,9.1 33.5,8.3 49.7,-2.1 21.2,-13.7 29.1,-39.2 17.7,-56.9 -11.4,-17.8 -37.9,-21.1 -59.2,-7.4 -15.9,10.3 -24.89999,27.8 -22.49999,43.9 -29.9,22.4 -68.5,39.7 -88.7,27.3 -16.2,-9.9 1.8,-122.3 19,-178.4 19.6,-7.7 33.1,-31.1 33.1,-57.749998 0,-33.339999 -20.8,-60.369999 -46.5,-60.359999 z"
         fill="#000000"
         fill-opacity="1"
         id="path159"
         inkscape:export-xdpi="96"
         inkscape:export-ydpi="96" />
    </mask>
    <mask
       id="mask-powermask-path-effect186"
       maskUnits="userSpaceOnUse">
      <path
         d="M 15,15 H 493.66352 V 459.42078 H 15 Z"
         style="fill:#ffffff;fill-opacity:1"
         id="mask-powermask-path-effect186_box" />
      <path
         d="m 317.3457,100.56641 c -2.53968,33.06333 -7.02392,65.94976 -12.9707,98.61328 -55.03071,-27.15615 -110.06114,-54.31255 -165.0918,-81.46875 -0.7848,2.60875 -2.0561,4.98857 -3.67968,7.10547 55.72379,27.49806 111.4482,54.99603 167.17187,82.49414 -5.58882,29.43933 -12.35321,58.67906 -20.02148,87.69922 -24.84381,3.56528 -49.68745,7.13198 -74.53125,10.69726 -34.08928,-53.94702 -59.17864,-113.52375 -81.02149,-173.83398 -2.37405,1.27403 -4.93168,2.21664 -7.56445,2.76172 21.49796,59.41732 46.13209,118.49405 79.69726,172.34765 -36.72065,5.26971 -73.44139,10.53917 -110.162105,15.8086 0.29014,1.53078 0.43219,3.10149 0.398437,4.69531 0.06235,1.14338 0.02028,2.25385 -0.08594,3.34179 38.186158,-5.47999 76.372478,-10.95943 114.558598,-16.43945 7.80809,12.11067 16.05661,23.9606 24.87891,35.45313 2.09578,-1.6781 4.33623,-3.15461 6.68554,-4.43164 -8.03756,-10.45884 -15.50162,-21.29155 -22.69922,-32.29493 22.54749,-3.23574 45.0951,-6.47128 67.64258,-9.70703 -3.34924,12.38438 -6.8493,24.72663 -10.47266,37.02539 2.61167,0.53228 5.17323,1.27338 7.65821,2.22071 3.96486,-13.43498 7.77772,-26.92781 11.41015,-40.47852 45.57227,-6.53998 91.14455,-13.08106 136.7168,-19.62109 -0.94748,-2.52507 -1.42721,-5.1865 -1.46289,-7.8711 -44.35026,6.36449 -88.70056,12.72914 -133.05078,19.09375 7.17118,-27.38917 13.52448,-54.99435 18.85937,-82.79882 38.34686,18.92311 76.69412,37.84632 115.04102,56.76953 0.66459,-2.59585 1.70492,-5.10052 3.07617,-7.40235 -38.83858,-19.16594 -77.67695,-38.33222 -116.51562,-57.49804 6.2045,-33.68669 10.89659,-67.63701 13.52148,-101.81446 -2.67712,0.26908 -5.37879,0.13601 -7.98633,-0.46679 z m 108.86133,182.89062 c -43.16546,24.01563 -85.82073,49.01785 -127.54101,75.52735 1.56076,2.11885 2.94814,4.36252 4.13867,6.70703 41.77848,-26.54399 84.52967,-51.59429 127.82031,-75.66797 -1.93805,-1.97921 -3.40651,-4.19795 -4.41797,-6.56641 z M 86.3125,340.14062 c -1.438666,2.31217 -3.289002,4.35209 -5.416016,6.07618 38.337536,26.44278 84.197356,40.27502 130.441406,45.16601 -0.25687,-2.71208 -0.2935,-5.4376 -0.0977,-8.14843 -44.4981,-4.84205 -88.36322,-18.15053 -124.92769,-43.09376 z M 344.62292,76.283257 c 0,11.561286 -9.37227,20.93356 -20.93356,20.933561 -11.56129,-10e-7 -20.93356,-9.372275 -20.93356,-20.933561 0,-11.561286 9.37227,-20.933561 20.93356,-20.933562 11.56129,1e-6 20.93356,9.372276 20.93356,20.933562 M 136.15957,110.3003 c 0,11.56129 -9.37227,20.93356 -20.93356,20.93356 -11.56128,0 -20.933557,-9.37228 -20.933558,-20.93356 0,-11.561285 9.372268,-20.933559 20.933558,-20.933561 11.56129,10e-7 20.93356,9.372275 20.93356,20.933561 M 85.57012,327.48599 c -10e-7,11.56129 -9.372275,20.93356 -20.933561,20.93356 -11.561286,0 -20.933561,-9.37227 -20.933562,-20.93356 10e-7,-11.56129 9.372276,-20.93356 20.933562,-20.93356 11.561286,0 20.93356,9.37227 20.933561,20.93356 M 470.2243,273.40762 c 0,11.56129 -9.37227,20.93356 -20.93356,20.93356 -11.56129,0 -20.93356,-9.37227 -20.93356,-20.93356 0,-11.56129 9.37227,-20.93356 20.93356,-20.93356 11.56129,0 20.93356,9.37227 20.93356,20.93356 M 304.06417,387.66998 c 0,24.56774 -19.91608,44.48382 -44.48382,44.48382 -24.56774,0 -44.48382,-19.91608 -44.48382,-44.48382 0,-24.56774 19.91608,-44.48382 44.48382,-44.48382 24.56774,0 44.48382,19.91608 44.48382,44.48382"
         style="color:#000000;font-style:normal;font-variant:normal;font-weight:normal;font-stretch:normal;font-size:medium;line-height:normal;font-family:sans-serif;font-variant-ligatures:normal;font-variant-position:normal;font-variant-caps:normal;font-variant-numeric:normal;font-variant-alternates:normal;font-variant-east-asian:normal;font-feature-settings:normal;font-variation-settings:normal;text-indent:0;text-align:start;text-decoration:none;text-decoration-line:none;text-decoration-style:solid;text-decoration-color:#000000;letter-spacing:normal;word-spacing:normal;text-transform:none;writing-mode:lr-tb;direction:ltr;text-orientation:mixed;dominant-baseline:auto;baseline-shift:baseline;text-anchor:start;white-space:normal;shape-padding:0;shape-margin:0;inline-size:0;clip-rule:nonzero;display:inline;overflow:visible;visibility:visible;opacity:1;isolation:auto;mix-blend-mode:normal;color-interpolation:sRGB;color-interpolation-filters:linearRGB;solid-color:#000000;solid-opacity:1;vector-effect:none;fill:#000000;fill-opacity:1;fill-rule:nonzero;stroke:none;stroke-width:8;stroke-linecap:butt;stroke-linejoin:miter;stroke-miterlimit:4;stroke-dasharray:none;stroke-dashoffset:0;stroke-opacity:1;color-rendering:auto;image-rendering:auto;shape-rendering:auto;text-rendering:auto;enable-background:accumulate;stop-color:#000000;stop-opacity:1"
         id="path183" />
    </mask>
    <filter
       y="-50"
       x="-50"
       width="100"
       height="100"
       style="color-interpolation-filters:sRGB"
       inkscape:label="filtermask-powermask-path-effect186"
       id="mask-powermask-path-effect186_inverse">
      <feColorMatrix
         result="fbSourceGraphic"
         type="saturate"
         values="1"
         id="mask-powermask-path-effect186_primitive1" />
      <feColorMatrix
         in="fbSourceGraphic"
         values="-1 0 0 0 1 0 -1 0 0 1 0 0 -1 0 1 0 0 0 1 0 "
         id="mask-powermask-path-effect186_primitive2" />
    </filter>
    <filter
       y="-50"
       x="-50"
       width="100"
       height="100"
       style="color-interpolation-filters:sRGB"
       inkscape:label="filtermask-powermask-path-effect161"
       id="mask-powermask-path-effect161_inverse">
      <feColorMatrix
         result="fbSourceGraphic"
         type="saturate"
         values="1"
         id="mask-powermask-path-effect161_primitive1" />
      <feColorMatrix
         in="fbSourceGraphic"
         values="-1 0 0 0 1 0 -1 0 0 1 0 0 -1 0 1 0 0 0 1 0 "
         id="mask-powermask-path-effect161_primitive2" />
    </filter>
    <mask
       id="mask-powermask-path-effect289"
       maskUnits="userSpaceOnUse">
      <path
         d="M 18.156,21 H 493.844 V 490.69 H 18.156 Z"
         style="fill:#ffffff;fill-opacity:1"
         id="mask-powermask-path-effect289_box" />
      <g
         style="fill:#000000"
         transform="matrix(0.26955523,0,0,0.26955523,535.82851,293.63801)"
         id="g285">
        <path
           inkscape:original-d="m 322.64697,16.000003 c -25.7,0 -46.5,27.02 -46.5,60.359999 0,20.050001 7.7,38.849998 20.6,50.049998 5.6,81.2 -4.7,152.3 -53.6,160.1 -60.2,6.2 -73.2,-68.2 -84.6,-139 8.9,-15.7 9.2,-37.5 0.6,-57.299997 -13.4,-30.79 -43.6,-47.33 -67.560015,-36.92 -23.92,10.4 -32.47,43.72 -19.11,74.519997 9.44,21.7 27.770015,37.1 47.070015,39.6 33.9,57.6 71.8,152.4 51,180.2 -11.5,15.2 -32.7,10.4 -55.6,-4 3.7,-16.3 -4.5,-34.6 -20.810015,-46.7 -22.74,-16.9 -53.8,-16.5 -69.39,0.8 -15.599999,17.3 -9.77,45 13,61.9 17.78,13.1 41.33,16.1 58.44,7.4 67.860015,32.9 121.860015,99.5 175.560015,90.6 76.2,-12.6 76.5,-119.3 148.29999,-149.9 13.7,9.1 33.5,8.3 49.7,-2.1 21.2,-13.7 29.1,-39.2 17.7,-56.9 -11.4,-17.8 -37.9,-21.1 -59.2,-7.4 -15.9,10.3 -24.89999,27.8 -22.49999,43.9 -29.9,22.4 -68.5,39.7 -88.7,27.3 -16.2,-9.9 1.8,-122.3 19,-178.4 19.6,-7.7 33.1,-31.1 33.1,-57.749998 0,-33.339999 -20.8,-60.369999 -46.5,-60.359999 z"
           inkscape:path-effect="#path-effect186"
           mask="url(#mask-powermask-path-effect186)"
           style="fill:#000000"
           inkscape:export-ydpi="96"
           inkscape:export-xdpi="96"
           id="path281"
           fill-opacity="1"
           fill="#000000"
           d="m 322.64697,16.000003 c -25.7,0 -46.5,27.02 -46.5,60.359999 0,20.050001 7.7,38.849998 20.6,50.049998 5.6,81.2 -4.7,152.3 -53.6,160.1 -60.2,6.2 -73.2,-68.2 -84.6,-139 8.9,-15.7 9.2,-37.5 0.6,-57.299997 -13.4,-30.79 -43.6,-47.33 -67.560015,-36.92 -23.92,10.4 -32.47,43.72 -19.11,74.519997 9.44,21.7 27.770015,37.1 47.070015,39.6 33.9,57.6 71.8,152.4 51,180.2 -11.5,15.2 -32.7,10.4 -55.6,-4 3.7,-16.3 -4.5,-34.6 -20.810015,-46.7 -22.74,-16.9 -53.8,-16.5 -69.39,0.8 -15.599999,17.3 -9.77,45 13,61.9 17.78,13.1 41.33,16.1 58.44,7.4 67.860015,32.9 121.860015,99.5 175.560015,90.6 76.2,-12.6 76.5,-119.3 148.29999,-149.9 13.7,9.1 33.5,8.3 49.7,-2.1 21.2,-13.7 29.1,-39.2 17.7,-56.9 -11.4,-17.8 -37.9,-21.1 -59.2,-7.4 -15.9,10.3 -24.89999,27.8 -22.49999,43.9 -29.9,22.4 -68.5,39.7 -88.7,27.3 -16.2,-9.9 1.8,-122.3 19,-178.4 19.6,-7.7 33.1,-31.1 33.1,-57.749998 0,-33.339999 -20.8,-60.369999 -46.5,-60.359999 z"
           transform="translate(-1262.7652,-179.72282)" />
        <path
           inkscape:original-d="m 116.99609,106.71289 -3.54101,7.17383 c 111.35491,54.9506 222.7115,109.90096 334.0664,164.85156 l 3.53907,-7.17383 C 339.70565,216.61385 228.351,161.66349 116.99609,106.71289 Z M 448.72266,271.19336 C 321.0861,289.51022 193.44907,307.82572 65.8125,326.14258 l 1.136719,7.91992 C 194.58579,315.74564 322.22282,297.42819 449.85938,279.11133 Z"
           inkscape:path-effect="#path-effect161"
           mask="url(#mask-powermask-path-effect161)"
           d="m 116.99609,106.71289 -3.54101,7.17383 c 111.35491,54.9506 222.7115,109.90096 334.0664,164.85156 l 3.53907,-7.17383 C 339.70565,216.61385 228.351,161.66349 116.99609,106.71289 Z M 448.72266,271.19336 C 321.0861,289.51022 193.44907,307.82572 65.8125,326.14258 l 1.136719,7.91992 C 194.58579,315.74564 322.22282,297.42819 449.85938,279.11133 Z"
           style="color:#000000;font-style:normal;font-variant:normal;font-weight:normal;font-stretch:normal;font-size:medium;line-height:normal;font-family:sans-serif;font-variant-ligatures:normal;font-variant-position:normal;font-variant-caps:normal;font-variant-numeric:normal;font-variant-alternates:normal;font-variant-east-asian:normal;font-feature-settings:normal;font-variation-settings:normal;text-indent:0;text-align:start;text-decoration:none;text-decoration-line:none;text-decoration-style:solid;text-decoration-color:#000000;letter-spacing:normal;word-spacing:normal;text-transform:none;writing-mode:lr-tb;direction:ltr;text-orientation:mixed;dominant-baseline:auto;baseline-shift:baseline;text-anchor:start;white-space:normal;shape-padding:0;shape-margin:0;inline-size:0;clip-rule:nonzero;display:inline;overflow:visible;visibility:visible;isolation:auto;mix-blend-mode:normal;color-interpolation:sRGB;color-interpolation-filters:linearRGB;solid-color:#000000;solid-opacity:1;vector-effect:none;fill:#000000;fill-opacity:1;fill-rule:nonzero;stroke:none;stroke-width:8;stroke-linecap:butt;stroke-linejoin:miter;stroke-miterlimit:4;stroke-dasharray:none;stroke-dashoffset:0;stroke-opacity:1;color-rendering:auto;image-rendering:auto;shape-rendering:auto;text-rendering:auto;enable-background:accumulate;stop-color:#000000"
           id="path283"
           transform="translate(-1262.7652,-179.72282)" />
      </g>
    </mask>
    <filter
       y="-50"
       x="-50"
       width="100"
       height="100"
       style="color-interpolation-filters:sRGB"
       inkscape:label="filtermask-powermask-path-effect289"
       id="mask-powermask-path-effect289_inverse">
      <feColorMatrix
         result="fbSourceGraphic"
         type="saturate"
         values="1"
         id="mask-powermask-path-effect289_primitive1" />
      <feColorMatrix
         in="fbSourceGraphic"
         values="-1 0 0 0 1 0 -1 0 0 1 0 0 -1 0 1 0 0 0 1 0 "
         id="mask-powermask-path-effect289_primitive2" />
    </filter>
  </defs>
  <sodipodi:namedview
     inkscape:document-rotation="0"
     pagecolor="#ffffff"
     bordercolor="#666666"
     borderopacity="1"
     objecttolerance="10"
     gridtolerance="10"
     guidetolerance="10"
     inkscape:pageopacity="0"
     inkscape:pageshadow="2"
     inkscape:window-width="1440"
     inkscape:window-height="773"
     id="namedview16"
     showgrid="false"
     lock-margins="true"
     fit-margin-top="16"
     fit-margin-left="16"
     fit-margin-right="16"
     fit-margin-bottom="16"
     inkscape:zoom="0.51914065"
     inkscape:cx="713.76281"
     inkscape:cy="406.01466"
     inkscape:window-x="0"
     inkscape:window-y="23"
     inkscape:window-maximized="0"
     inkscape:current-layer="svg14" />
  <g
     inkscape:path-effect="#path-effect289"
     mask="url(#mask-powermask-path-effect289)"
     class=""
     id="g12"
     transform="translate(-3.156,-6)">
    <path
       inkscape:original-d="m 176,22 v 86 c 80,32 80,32 160,0 V 22 L 288,70 256,22 224,70 Z m 159.543,108.31 c -4.742,0.195 -9.564,1.488 -14.205,4.167 -38.934,22.48 -89.77,21.953 -127.79,0.002 -6.09,-3.516 -12.284,-4.611 -18.144,-3.893 a 46.38,46.38 0 0 1 9.438,28.09 c 0,23.15 -17.037,42.83 -39.176,45.096 -12.775,14.92 -21.554,31.806 -24.387,49.982 44.73,-23.79 90.948,-35.572 137.065,-35.508 46.15,0.064 92.197,11.986 136.56,35.62 -2.69,-18.15 -11.217,-35.044 -23.795,-49.92 -0.585,0.025 -1.17,0.048 -1.76,0.048 -24.18,0 -43.447,-20.7 -43.447,-45.318 0,-10.64 3.601,-20.542 9.641,-28.363 z m -194.148,3.215 -0.002,0.002 c -12.67,0 -23.278,10.85 -23.278,25.15 0,14.298 10.608,25.147 23.278,25.147 12.67,0 23.277,-10.85 23.277,-25.148 0,-14.298 -10.607,-25.15 -23.276,-25.15 z m 227.953,0 v 0.002 c -12.67,0 -23.276,10.85 -23.276,25.15 0,14.298 10.607,25.147 23.276,25.147 12.67,0 23.277,-10.85 23.277,-25.148 0,-14.298 -10.608,-25.15 -23.277,-25.15 z m 68.396,93.375 c -9.361,-0.13 -18.96,1.646 -28.676,4.237 6.926,19.457 8.569,40.725 2.694,62.656 -4.26,15.896 0.934,37.475 11.7,54.758 l 4.69,7.53 -7.02,5.43 c -19.764,15.28 -36.439,25.107 -46.103,35.264 -9.664,10.158 -13.888,19.59 -10.916,40.875 0.484,12.745 6.068,17.054 13.668,24.97 19.876,-14.55 36.01,-23.888 68.344,-4.095 -6.738,-18.804 15.937,-29.76 46.719,-29.779 -36.91,-15.88 -64.98,-25.62 -86.438,-30.377 67.492,-72.188 97.182,-127.96 66,-159.187 C 461.421,230.388 449.78,227.068 437.744,226.9 Z M 73.67,227.018 c -12.65,0.034 -24.768,3.161 -34.076,12.166 -31.182,31.227 -1.492,87 66,159.187 -21.456,4.756 -49.528,14.497 -86.438,30.375 30.782,0.02 53.457,10.978 46.719,29.781 32.332,-19.792 48.469,-10.455 68.344,4.094 6.233,-8.55 16.31,-14.826 17.724,-24.969 2.972,-21.283 -1.25,-30.717 -10.914,-40.875 -9.664,-10.157 -26.34,-19.982 -46.105,-35.263 l -7.02,-5.428 4.692,-7.53 c 10.73,-17.227 15.857,-39.232 11.699,-54.76 -5.782,-21.571 -4.184,-42.44 2.537,-61.56 -10.425,-2.871 -22,-5.249 -33.162,-5.218 z m 184.67,9.539 c -46.096,-0.065 -92.3,12.827 -137.572,38.845 a 87.269,87.269 0 0 0 2.494,13.31 v 0.003 c 5.453,20.354 0.592,42.93 -9.485,62.297 15.89,11.634 30.344,20.524 41.479,32.228 10.36,10.89 16.795,25.133 16.955,43.713 -1.096,16.308 -9.158,39.273 -22.348,59.244 24.59,-14.237 42.135,-15.333 45.291,3.492 14.097,-17.783 25.698,-20.386 38.985,-8.035 -3.745,-31.452 -11.117,-52.887 -17.258,-65.097 -14.896,-36.567 -42.816,-61.484 -73.742,-83.424 l 11.359,-16.014 c 38.788,27.517 76.799,62.664 89.125,119.567 9.628,0.705 19.25,0.65 28.85,-0.16 12.362,-56.81 50.333,-91.919 89.084,-119.409 l 11.361,16.016 c -31.19,22.127 -59.334,47.28 -74.13,84.363 -6.046,12.357 -13.14,33.493 -16.794,64.158 13.29,-12.35 24.891,-9.747 38.988,8.036 3.153,-18.825 20.697,-17.73 45.288,-3.493 -13.51,-20.455 -21.645,-44.058 -22.42,-60.424 0.415,-18.01 6.809,-31.872 16.949,-42.533 11.135,-11.705 25.586,-20.595 41.474,-32.23 -10.064,-19.29 -14.99,-41.737 -9.48,-62.303 a 88.607,88.607 0 0 0 2.51,-13.266 c -44.85,-25.79 -90.85,-38.818 -136.961,-38.884 z"
       d="m 176,22 v 86 c 80,32 80,32 160,0 V 22 L 288,70 256,22 224,70 Z m 159.543,108.31 c -4.742,0.195 -9.564,1.488 -14.205,4.167 -38.934,22.48 -89.77,21.953 -127.79,0.002 -6.09,-3.516 -12.284,-4.611 -18.144,-3.893 a 46.38,46.38 0 0 1 9.438,28.09 c 0,23.15 -17.037,42.83 -39.176,45.096 -12.775,14.92 -21.554,31.806 -24.387,49.982 44.73,-23.79 90.948,-35.572 137.065,-35.508 46.15,0.064 92.197,11.986 136.56,35.62 -2.69,-18.15 -11.217,-35.044 -23.795,-49.92 -0.585,0.025 -1.17,0.048 -1.76,0.048 -24.18,0 -43.447,-20.7 -43.447,-45.318 0,-10.64 3.601,-20.542 9.641,-28.363 z m -194.148,3.215 -0.002,0.002 c -12.67,0 -23.278,10.85 -23.278,25.15 0,14.298 10.608,25.147 23.278,25.147 12.67,0 23.277,-10.85 23.277,-25.148 0,-14.298 -10.607,-25.15 -23.276,-25.15 z m 227.953,0 v 0.002 c -12.67,0 -23.276,10.85 -23.276,25.15 0,14.298 10.607,25.147 23.276,25.147 12.67,0 23.277,-10.85 23.277,-25.148 0,-14.298 -10.608,-25.15 -23.277,-25.15 z m 68.396,93.375 c -9.361,-0.13 -18.96,1.646 -28.676,4.237 6.926,19.457 8.569,40.725 2.694,62.656 -4.26,15.896 0.934,37.475 11.7,54.758 l 4.69,7.53 -7.02,5.43 c -19.764,15.28 -36.439,25.107 -46.103,35.264 -9.664,10.158 -13.888,19.59 -10.916,40.875 0.484,12.745 6.068,17.054 13.668,24.97 19.876,-14.55 36.01,-23.888 68.344,-4.095 -6.738,-18.804 15.937,-29.76 46.719,-29.779 -36.91,-15.88 -64.98,-25.62 -86.438,-30.377 67.492,-72.188 97.182,-127.96 66,-159.187 C 461.421,230.388 449.78,227.068 437.744,226.9 Z M 73.67,227.018 c -12.65,0.034 -24.768,3.161 -34.076,12.166 -31.182,31.227 -1.492,87 66,159.187 -21.456,4.756 -49.528,14.497 -86.438,30.375 30.782,0.02 53.457,10.978 46.719,29.781 32.332,-19.792 48.469,-10.455 68.344,4.094 6.233,-8.55 16.31,-14.826 17.724,-24.969 2.972,-21.283 -1.25,-30.717 -10.914,-40.875 -9.664,-10.157 -26.34,-19.982 -46.105,-35.263 l -7.02,-5.428 4.692,-7.53 c 10.73,-17.227 15.857,-39.232 11.699,-54.76 -5.782,-21.571 -4.184,-42.44 2.537,-61.56 -10.425,-2.871 -22,-5.249 -33.162,-5.218 z m 184.67,9.539 c -46.096,-0.065 -92.3,12.827 -137.572,38.845 a 87.269,87.269 0 0 0 2.494,13.31 v 0.003 c 5.453,20.354 0.592,42.93 -9.485,62.297 15.89,11.634 30.344,20.524 41.479,32.228 10.36,10.89 16.795,25.133 16.955,43.713 -1.096,16.308 -9.158,39.273 -22.348,59.244 24.59,-14.237 42.135,-15.333 45.291,3.492 14.097,-17.783 25.698,-20.386 38.985,-8.035 -3.745,-31.452 -11.117,-52.887 -17.258,-65.097 -14.896,-36.567 -42.816,-61.484 -73.742,-83.424 l 11.359,-16.014 c 38.788,27.517 76.799,62.664 89.125,119.567 9.628,0.705 19.25,0.65 28.85,-0.16 12.362,-56.81 50.333,-91.919 89.084,-119.409 l 11.361,16.016 c -31.19,22.127 -59.334,47.28 -74.13,84.363 -6.046,12.357 -13.14,33.493 -16.794,64.158 13.29,-12.35 24.891,-9.747 38.988,8.036 3.153,-18.825 20.697,-17.73 45.288,-3.493 -13.51,-20.455 -21.645,-44.058 -22.42,-60.424 0.415,-18.01 6.809,-31.872 16.949,-42.533 11.135,-11.705 25.586,-20.595 41.474,-32.23 -10.064,-19.29 -14.99,-41.737 -9.48,-62.303 a 88.607,88.607 0 0 0 2.51,-13.266 c -44.85,-25.79 -90.85,-38.818 -136.961,-38.884 z"
       fill="#000000"
       fill-opacity="1"
       id="path10" />
  </g>
</svg>
